<svg width="13" height="13" viewBox="0 0 13 13" fill="white" xmlns="http://www.w3.org/2000/svg">
<path d="M12.5 0.5H9.5C9.36739 0.5 9.24021 0.552679 9.14645 0.646447C9.05268 0.740215 9 0.867392 9 1C9 1.13261 9.05268 1.25979 9.14645 1.35355C9.24021 1.44732 9.36739 1.5 9.5 1.5H11.2931L8.66375 4.12937C7.67057 3.31754 6.40336 2.91848 5.12421 3.01473C3.84507 3.11098 2.65184 3.69517 1.79132 4.64647C0.930801 5.59778 0.468822 6.84343 0.500931 8.12579C0.53304 9.40815 1.05678 10.6291 1.96383 11.5362C2.87088 12.4432 4.09185 12.967 5.37421 12.9991C6.65657 13.0312 7.90222 12.5692 8.85353 11.7087C9.80484 10.8482 10.389 9.65493 10.4853 8.37579C10.5815 7.09664 10.1825 5.82943 9.37063 4.83625L12 2.2075V4C12 4.13261 12.0527 4.25979 12.1464 4.35355C12.2402 4.44732 12.3674 4.5 12.5 4.5C12.6326 4.5 12.7598 4.44732 12.8536 4.35355C12.9473 4.25979 13 4.13261 13 4V1C13 0.867392 12.9473 0.740215 12.8536 0.646447C12.7598 0.552679 12.6326 0.5 12.5 0.5ZM8.3275 10.8306C7.76802 11.3899 7.05528 11.7706 6.27941 11.9248C5.50353 12.079 4.69936 11.9997 3.96856 11.6969C3.23776 11.3941 2.61315 10.8814 2.17371 10.2237C1.73426 9.5659 1.49971 8.79261 1.49971 8.00156C1.49971 7.21051 1.73426 6.43723 2.17371 5.77947C2.61315 5.12171 3.23776 4.60902 3.96856 4.30622C4.69936 4.00341 5.50353 3.92409 6.27941 4.07829C7.05528 4.23249 7.76802 4.61327 8.3275 5.1725C9.07651 5.92351 9.49713 6.94089 9.49713 8.00156C9.49713 9.06223 9.07651 10.0796 8.3275 10.8306Z" fill="white"/>
</svg>
