<svg width="32" height="32" viewBox="0 0 32 32" fill="none" xmlns="http://www.w3.org/2000/svg">
<path d="M16 4C13.6266 4 11.3066 4.70379 9.33316 6.02236C7.35977 7.34094 5.8217 9.21509 4.91345 11.4078C4.0052 13.6005 3.76756 16.0133 4.23058 18.3411C4.6936 20.6689 5.83649 22.8071 7.51472 24.4853C9.19295 26.1635 11.3312 27.3064 13.6589 27.7694C15.9867 28.2324 18.3995 27.9948 20.5922 27.0866C22.7849 26.1783 24.6591 24.6402 25.9776 22.6668C27.2962 20.6935 28 18.3734 28 16C27.9964 12.8185 26.7309 9.76839 24.4813 7.51874C22.2316 5.26909 19.1815 4.00364 16 4ZM16 26C14.0222 26 12.0888 25.4135 10.4443 24.3147C8.79981 23.2159 7.51809 21.6541 6.76121 19.8268C6.00433 17.9996 5.8063 15.9889 6.19215 14.0491C6.578 12.1093 7.53041 10.3275 8.92894 8.92893C10.3275 7.53041 12.1093 6.578 14.0491 6.19215C15.9889 5.8063 17.9996 6.00433 19.8268 6.7612C21.6541 7.51808 23.2159 8.79981 24.3147 10.4443C25.4135 12.0888 26 14.0222 26 16C25.997 18.6513 24.9425 21.1931 23.0678 23.0678C21.1931 24.9425 18.6513 25.997 16 26ZM21.7075 10.2925C21.8005 10.3854 21.8742 10.4957 21.9246 10.6171C21.9749 10.7385 22.0008 10.8686 22.0008 11C22.0008 11.1314 21.9749 11.2615 21.9246 11.3829C21.8742 11.5043 21.8005 11.6146 21.7075 11.7075L16.7075 16.7075C16.6146 16.8004 16.5043 16.8741 16.3829 16.9244C16.2615 16.9747 16.1314 17.0006 16 17.0006C15.8686 17.0006 15.7385 16.9747 15.6171 16.9244C15.4957 16.8741 15.3854 16.8004 15.2925 16.7075C15.1996 16.6146 15.1259 16.5043 15.0756 16.3829C15.0253 16.2615 14.9994 16.1314 14.9994 16C14.9994 15.8686 15.0253 15.7385 15.0756 15.6171C15.1259 15.4957 15.1996 15.3854 15.2925 15.2925L20.2925 10.2925C20.3854 10.1995 20.4957 10.1258 20.6171 10.0754C20.7385 10.0251 20.8686 9.99921 21 9.99921C21.1314 9.99921 21.2615 10.0251 21.3829 10.0754C21.5043 10.1258 21.6146 10.1995 21.7075 10.2925Z" fill="black"/>
<path fill-rule="evenodd" clip-rule="evenodd" d="M16 4C16.5523 4 17 4.44772 17 5V7.5C17 8.05228 16.5523 8.5 16 8.5C15.4477 8.5 15 8.05228 15 7.5V5C15 4.44772 15.4477 4 16 4Z" fill="black"/>
<path fill-rule="evenodd" clip-rule="evenodd" d="M4 16C4 15.4477 4.44772 15 5 15L7.5 15C8.05228 15 8.5 15.4477 8.5 16C8.5 16.5523 8.05228 17 7.5 17L5 17C4.44772 17 4 16.5523 4 16Z" fill="black"/>
<path fill-rule="evenodd" clip-rule="evenodd" d="M23 16C23 15.4477 23.4477 15 24 15L26.5 15C27.0523 15 27.5 15.4477 27.5 16C27.5 16.5523 27.0523 17 26.5 17L24 17C23.4477 17 23 16.5523 23 16Z" fill="black"/>
<path d="M18 16C18 17.1046 17.1046 18 16 18C14.8954 18 14 17.1046 14 16C14 14.8954 14.8954 14 16 14C17.1046 14 18 14.8954 18 16Z" fill="black"/>
</svg>
