<svg width="34" height="33" viewBox="0 0 34 33" fill="none" xmlns="http://www.w3.org/2000/svg">
<g clip-path="url(#clip0_16_553)">
<path d="M16.5222 4.92137C17.9516 4.92137 19.1863 4.00995 19.6299 2.66919C18.7837 2.90212 17.7051 3.04271 16.5222 3.04271C15.3395 3.04271 14.2609 2.90212 13.4148 2.66919C13.8581 4.00984 15.0927 4.92137 16.5222 4.92137Z" fill="white"/>
<path d="M32.9812 6.57018C32.9133 6.37967 32.772 6.22301 32.588 6.1377L26.2964 3.23328C24.9581 2.77992 23.5947 2.42181 22.218 2.16007C22.1695 2.15057 22.1213 2.146 22.0737 2.146C21.7329 2.146 21.4277 2.38127 21.3518 2.72632C20.8491 4.93953 18.8899 6.59653 16.5222 6.59653C14.1545 6.59653 12.1952 4.93964 11.6926 2.72632C11.6158 2.38127 11.3112 2.146 10.9706 2.146C10.923 2.146 10.8748 2.15057 10.8263 2.16007C9.44972 2.42181 8.08629 2.77992 6.74586 3.23328L0.456533 6.13758C0.271392 6.2229 0.12913 6.37956 0.0644762 6.57006C-0.00241132 6.7628 0.00964854 6.97083 0.103894 7.15262L2.83523 12.5429C2.96308 12.7988 3.22315 12.9523 3.4983 12.9523C3.56932 12.9523 3.64134 12.942 3.71236 12.9207L6.74597 12.0216V30.108C6.74597 30.5187 7.08108 30.8537 7.4929 30.8537H25.5517C25.9625 30.8537 26.2966 30.5186 26.2966 30.108V12.0218L29.3323 12.9209C29.4033 12.9422 29.4752 12.9525 29.5461 12.9525C29.8207 12.9525 30.0798 12.799 30.2094 12.5432L32.9418 7.15284C33.0338 6.97094 33.0469 6.76291 32.9812 6.57018Z" fill="white"/>
</g>
<defs>
<clipPath id="clip0_16_553">
<rect width="33" height="33" fill="white" transform="translate(0.0222168)"/>
</clipPath>
</defs>
</svg>
