<svg width="50" height="45" viewBox="0 0 50 45" fill="none" xmlns="http://www.w3.org/2000/svg">
<g clip-path="url(#clip0_9_3488)">
<path d="M19.3799 20.25H22.3799C23.2099 20.25 23.8799 20.92 23.8799 21.75C23.8799 22.58 23.2099 23.25 22.3799 23.25H19.3799C18.5499 23.25 17.8799 22.58 17.8799 21.75C17.8799 20.92 18.5499 20.25 19.3799 20.25Z" fill="white"/>
<mask id="mask0_9_3488" style="mask-type:luminance" maskUnits="userSpaceOnUse" x="17" y="20" width="7" height="4">
<path d="M19.3799 20.25H22.3799C23.2099 20.25 23.8799 20.92 23.8799 21.75C23.8799 22.58 23.2099 23.25 22.3799 23.25H19.3799C18.5499 23.25 17.8799 22.58 17.8799 21.75C17.8799 20.92 18.5499 20.25 19.3799 20.25Z" fill="white"/>
</mask>
<g mask="url(#mask0_9_3488)">
<path fill-rule="evenodd" clip-rule="evenodd" d="M18.6299 22C18.6299 21.4477 19.0776 21 19.6299 21H22.1299C22.6822 21 23.1299 21.4477 23.1299 22C23.1299 22.5523 22.6822 23 22.1299 23H19.6299C19.0776 23 18.6299 22.5523 18.6299 22Z" fill="white"/>
</g>
<path d="M19.3799 20.25H22.3799C23.2099 20.25 23.8799 20.92 23.8799 21.75C23.8799 22.58 23.2099 23.25 22.3799 23.25H19.3799C18.5499 23.25 17.8799 22.58 17.8799 21.75C17.8799 20.92 18.5499 20.25 19.3799 20.25Z" fill="white"/>
<mask id="mask1_9_3488" style="mask-type:luminance" maskUnits="userSpaceOnUse" x="17" y="20" width="7" height="4">
<path d="M19.3799 20.25H22.3799C23.2099 20.25 23.8799 20.92 23.8799 21.75C23.8799 22.58 23.2099 23.25 22.3799 23.25H19.3799C18.5499 23.25 17.8799 22.58 17.8799 21.75C17.8799 20.92 18.5499 20.25 19.3799 20.25Z" fill="white"/>
</mask>
<g mask="url(#mask1_9_3488)">
<path fill-rule="evenodd" clip-rule="evenodd" d="M18.6299 22C18.6299 21.4477 19.0776 21 19.6299 21H22.1299C22.6822 21 23.1299 21.4477 23.1299 22C23.1299 22.5523 22.6822 23 22.1299 23H19.6299C19.0776 23 18.6299 22.5523 18.6299 22Z" fill="white"/>
</g>
<path fill-rule="evenodd" clip-rule="evenodd" d="M7.62999 32.4199C7.62999 28.6899 10.2 25.3999 13.83 24.3999C14.55 22.2299 15.93 20.3999 17.7 19.0599C16.32 17.4499 14.28 16.4199 11.99 16.4199C8.33999 16.4199 5.30999 19.0199 4.62999 22.4699C4.58999 22.4699 4.53999 22.4699 4.48999 22.4699C1.93999 22.8299 -0.0100098 25.0199 -0.0100098 27.6699C-0.0100098 30.5699 2.33999 32.9199 5.23999 32.9199H7.64999C7.63999 32.7499 7.61999 32.5799 7.61999 32.4099L7.62999 32.4199Z" fill="white"/>
<mask id="mask2_9_3488" style="mask-type:luminance" maskUnits="userSpaceOnUse" x="43" y="20" width="7" height="4">
<path d="M44.8799 20.25H47.8799C48.7099 20.25 49.3799 20.92 49.3799 21.75C49.3799 22.58 48.7099 23.25 47.8799 23.25H44.8799C44.0499 23.25 43.3799 22.58 43.3799 21.75C43.3799 20.92 44.0499 20.25 44.8799 20.25Z" fill="white"/>
</mask>
<g mask="url(#mask2_9_3488)">
<path fill-rule="evenodd" clip-rule="evenodd" d="M44.1299 22C44.1299 21.4477 44.5776 21 45.1299 21H47.6299C48.1822 21 48.6299 21.4477 48.6299 22C48.6299 22.5523 48.1822 23 47.6299 23H45.1299C44.5776 23 44.1299 22.5523 44.1299 22Z" fill="white"/>
</g>
<mask id="mask3_9_3488" style="mask-type:luminance" maskUnits="userSpaceOnUse" x="17" y="20" width="7" height="4">
<path d="M19.3799 20.25H22.3799C23.2099 20.25 23.8799 20.92 23.8799 21.75C23.8799 22.58 23.2099 23.25 22.3799 23.25H19.3799C18.5499 23.25 17.8799 22.58 17.8799 21.75C17.8799 20.92 18.5499 20.25 19.3799 20.25Z" fill="white"/>
</mask>
<g mask="url(#mask3_9_3488)">
<path fill-rule="evenodd" clip-rule="evenodd" d="M18.6299 22C18.6299 21.4477 19.0776 21 19.6299 21H22.1299C22.6822 21 23.1299 21.4477 23.1299 22C23.1299 22.5523 22.6822 23 22.1299 23H19.6299C19.0776 23 18.6299 22.5523 18.6299 22Z" fill="white"/>
</g>
<mask id="mask4_9_3488" style="mask-type:luminance" maskUnits="userSpaceOnUse" x="43" y="20" width="7" height="4">
<path d="M44.8799 20.25H47.8799C48.7099 20.25 49.3799 20.92 49.3799 21.75C49.3799 22.58 48.7099 23.25 47.8799 23.25H44.8799C44.0499 23.25 43.3799 22.58 43.3799 21.75C43.3799 20.92 44.0499 20.25 44.8799 20.25Z" fill="white"/>
</mask>
<g mask="url(#mask4_9_3488)">
<path fill-rule="evenodd" clip-rule="evenodd" d="M44.1299 22C44.1299 21.4477 44.5776 21 45.1299 21H47.6299C48.1822 21 48.6299 21.4477 48.6299 22C48.6299 22.5523 48.1822 23 47.6299 23H45.1299C44.5776 23 44.1299 22.5523 44.1299 22Z" fill="white"/>
</g>
<mask id="mask5_9_3488" style="mask-type:luminance" maskUnits="userSpaceOnUse" x="17" y="20" width="7" height="4">
<path d="M19.3799 20.25H22.3799C23.2099 20.25 23.8799 20.92 23.8799 21.75C23.8799 22.58 23.2099 23.25 22.3799 23.25H19.3799C18.5499 23.25 17.8799 22.58 17.8799 21.75C17.8799 20.92 18.5499 20.25 19.3799 20.25Z" fill="white"/>
</mask>
<g mask="url(#mask5_9_3488)">
<path fill-rule="evenodd" clip-rule="evenodd" d="M18.6299 22C18.6299 21.4477 19.0776 21 19.6299 21H22.1299C22.6822 21 23.1299 21.4477 23.1299 22C23.1299 22.5523 22.6822 23 22.1299 23H19.6299C19.0776 23 18.6299 22.5523 18.6299 22Z" fill="white"/>
</g>
<mask id="mask6_9_3488" style="mask-type:luminance" maskUnits="userSpaceOnUse" x="41" y="25" width="7" height="6">
<path d="M44.1198 26.08L46.7198 27.58C47.4398 27.99 47.6798 28.91 47.2698 29.63C46.8598 30.35 45.9398 30.59 45.2198 30.18L42.6198 28.68C41.8998 28.27 41.6598 27.35 42.0698 26.63C42.4798 25.91 43.3998 25.67 44.1198 26.08Z" fill="white"/>
</mask>
<g mask="url(#mask6_9_3488)">
<path fill-rule="evenodd" clip-rule="evenodd" d="M42.5934 27.221C42.869 26.7424 43.4805 26.5779 43.959 26.8536L46.129 28.1036C46.6076 28.3793 46.7721 28.9907 46.4964 29.4693C46.2207 29.9478 45.6093 30.1123 45.1307 29.8367L42.9607 28.5867C42.4822 28.311 42.3177 27.6996 42.5934 27.221Z" fill="white"/>
</g>
<mask id="mask7_9_3488" style="mask-type:luminance" maskUnits="userSpaceOnUse" x="25" y="7" width="5" height="7">
<path d="M27.7999 8.66006L29.2999 11.2601C29.7099 11.9801 29.4699 12.8901 28.7499 13.3101C28.0299 13.7201 27.1199 13.4801 26.6999 12.7601L25.1999 10.1601C24.7899 9.44006 25.0299 8.53005 25.7499 8.11005C26.4699 7.70005 27.3799 7.94006 27.7999 8.66006Z" fill="white"/>
</mask>
<g mask="url(#mask7_9_3488)">
<path fill-rule="evenodd" clip-rule="evenodd" d="M25.9107 8.88365C26.3893 8.60798 27.0007 8.77246 27.2764 9.25102L28.5264 11.421C28.802 11.8996 28.6375 12.511 28.159 12.7867C27.6804 13.0624 27.069 12.8979 26.7933 12.4193L25.5433 10.2493C25.2676 9.77075 25.4321 9.15932 25.9107 8.88365Z" fill="white"/>
</g>
<mask id="mask8_9_3488" style="mask-type:luminance" maskUnits="userSpaceOnUse" x="32" y="31" width="4" height="7">
<path d="M35.1299 33V36C35.1299 36.83 34.4599 37.5 33.6299 37.5C32.7999 37.5 32.1299 36.83 32.1299 36V33C32.1299 32.17 32.7999 31.5 33.6299 31.5C34.4599 31.5 35.1299 32.17 35.1299 33Z" fill="white"/>
</mask>
<g mask="url(#mask8_9_3488)">
<path fill-rule="evenodd" clip-rule="evenodd" d="M33.3799 32.25C33.9322 32.25 34.3799 32.6977 34.3799 33.25V35.75C34.3799 36.3023 33.9322 36.75 33.3799 36.75C32.8276 36.75 32.3799 36.3023 32.3799 35.75V33.25C32.3799 32.6977 32.8276 32.25 33.3799 32.25Z" fill="white"/>
</g>
<mask id="mask9_9_3488" style="mask-type:luminance" maskUnits="userSpaceOnUse" x="32" y="6" width="4" height="6">
<path d="M35.1299 7.5V10.5C35.1299 11.33 34.4599 12 33.6299 12C32.7999 12 32.1299 11.33 32.1299 10.5V7.5C32.1299 6.67 32.7999 6 33.6299 6C34.4599 6 35.1299 6.67 35.1299 7.5Z" fill="white"/>
</mask>
<g mask="url(#mask9_9_3488)">
<path fill-rule="evenodd" clip-rule="evenodd" d="M33.3799 6.75C33.9322 6.75 34.3799 7.19772 34.3799 7.75V10.25C34.3799 10.8023 33.9322 11.25 33.3799 11.25C32.8276 11.25 32.3799 10.8023 32.3799 10.25V7.75C32.3799 7.19772 32.8276 6.75 33.3799 6.75Z" fill="white"/>
</g>
<mask id="mask10_9_3488" style="mask-type:luminance" maskUnits="userSpaceOnUse" x="25" y="29" width="5" height="7">
<path d="M29.2999 32.2399L27.7999 34.8399C27.3899 35.5599 26.4699 35.7999 25.7499 35.3899C25.0299 34.9799 24.7899 34.0599 25.1999 33.3399L26.6999 30.7399C27.1099 30.0199 28.0299 29.7799 28.7499 30.1899C29.4699 30.5999 29.7099 31.5199 29.2999 32.2399Z" fill="white"/>
</mask>
<g mask="url(#mask10_9_3488)">
<path fill-rule="evenodd" clip-rule="evenodd" d="M28.159 30.7135C28.6375 30.9892 28.802 31.6006 28.5264 32.0791L27.2764 34.2491C27.0007 34.7277 26.3893 34.8922 25.9107 34.6165C25.4321 34.3408 25.2676 33.7294 25.5433 33.2509L26.7933 31.0809C27.069 30.6023 27.6804 30.4378 28.159 30.7135Z" fill="white"/>
</g>
<mask id="mask11_9_3488" style="mask-type:luminance" maskUnits="userSpaceOnUse" x="37" y="7" width="6" height="7">
<path d="M42.0499 10.1601L40.5499 12.7601C40.1399 13.4801 39.2199 13.7201 38.4999 13.3101C37.7799 12.9001 37.5399 11.9801 37.9499 11.2601L39.4499 8.66006C39.8599 7.94006 40.7799 7.70005 41.4999 8.11005C42.2199 8.52005 42.4599 9.44006 42.0499 10.1601Z" fill="white"/>
</mask>
<g mask="url(#mask11_9_3488)">
<path fill-rule="evenodd" clip-rule="evenodd" d="M40.909 8.63365C41.3875 8.90932 41.552 9.52075 41.2764 9.99931L40.0264 12.1693C39.7507 12.6479 39.1393 12.8124 38.6607 12.5367C38.1821 12.261 38.0176 11.6496 38.2933 11.171L39.5433 9.00102C39.819 8.52246 40.4304 8.35798 40.909 8.63365Z" fill="white"/>
</g>
<mask id="mask12_9_3488" style="mask-type:luminance" maskUnits="userSpaceOnUse" x="19" y="25" width="7" height="6">
<path d="M24.6399 28.67L22.0399 30.17C21.3199 30.58 20.4099 30.34 19.9899 29.62C19.5799 28.9 19.8199 27.99 20.5399 27.57L23.1399 26.07C23.8599 25.66 24.7699 25.9 25.1899 26.62C25.5999 27.34 25.3599 28.25 24.6399 28.67Z" fill="white"/>
</mask>
<g mask="url(#mask12_9_3488)">
<path fill-rule="evenodd" clip-rule="evenodd" d="M24.4166 26.7808C24.6922 27.2594 24.5278 27.8708 24.0492 28.1465L21.8792 29.3965C21.4006 29.6721 20.7892 29.5077 20.5135 29.0291C20.2379 28.5505 20.4023 27.9391 20.8809 27.6634L23.0509 26.4134C23.5295 26.1378 24.1409 26.3022 24.4166 26.7808Z" fill="white"/>
</g>
<mask id="mask13_9_3488" style="mask-type:luminance" maskUnits="userSpaceOnUse" x="41" y="13" width="7" height="5">
<path d="M46.7198 15.92L44.1198 17.42C43.3998 17.83 42.4898 17.59 42.0698 16.87C41.6598 16.15 41.8998 15.24 42.6198 14.82L45.2198 13.32C45.9398 12.91 46.8498 13.15 47.2698 13.87C47.6798 14.59 47.4398 15.5 46.7198 15.92Z" fill="white"/>
</mask>
<g mask="url(#mask13_9_3488)">
<path fill-rule="evenodd" clip-rule="evenodd" d="M46.4964 14.0308C46.7721 14.5094 46.6076 15.1208 46.129 15.3965L43.959 16.6465C43.4805 16.9221 42.869 16.7577 42.5934 16.2791C42.3177 15.8005 42.4822 15.1891 42.9607 14.9134L45.1307 13.6634C45.6093 13.3878 46.2207 13.5522 46.4964 14.0308Z" fill="white"/>
</g>
<path fill-rule="evenodd" clip-rule="evenodd" d="M34.4399 25.81C34.4399 25.81 34.6199 26.75 34.6899 26.75C38.0799 27.23 40.6299 29.21 40.6299 32.74C40.6299 36.61 37.4999 39.74 33.6299 39.74H15.6299C11.7599 39.74 8.62988 36.61 8.62988 32.74C8.62988 29.21 11.2399 26.29 14.6299 25.81C14.6899 25.81 14.7499 25.8 14.8099 25.81C15.7099 21.21 19.7599 17.75 24.6199 17.75C29.4799 17.75 33.5299 21.22 34.4299 25.81H34.4399Z" fill="white"/>
<path d="M35.85 26.13C36.85 26.37 37.77 26.81 38.57 27.39C40.14 26.02 41.14 24 41.14 21.75C41.14 17.61 37.78 14.25 33.64 14.25C31.22 14.25 29.08 15.4 27.71 17.17C31.9 18.34 35.17 21.82 35.86 26.13H35.85Z" fill="white"/>
</g>
<defs>
<clipPath id="clip0_9_3488">
<rect width="49.38" height="33.75" fill="white" transform="translate(0 6)"/>
</clipPath>
</defs>
</svg>
