<svg width="34" height="33" viewBox="0 0 34 33" fill="none" xmlns="http://www.w3.org/2000/svg">
<g clip-path="url(#clip0_16_549)">
<path d="M19.0306 24.1424L16.7762 4.6831C16.694 3.97304 16.9196 3.25977 17.3954 2.72628C17.8704 2.19346 18.5524 1.88785 19.2663 1.88785H19.2671H19.2679H19.2687L20.2757 1.88874L20.3601 0.923271C20.3806 0.688511 20.3016 0.455861 20.1425 0.282068C19.9834 0.108274 19.7586 0.00921752 19.523 0.00899542L9.82795 3.60585e-07C9.58786 -0.00022174 9.35921 0.102167 9.19941 0.28129C9.03961 0.460414 8.96409 0.699394 8.99163 0.937819L11.246 20.3971C11.3893 21.635 10.8332 22.85 9.80263 23.5505L5.71721 26.3274C4.93864 26.8566 4.71942 27.9076 5.22159 28.7038C5.51299 29.166 6.02127 29.4464 6.56763 29.4464H12.0749C12.4271 29.4464 12.7422 29.2269 12.8642 28.8966C13.2222 27.9266 14.1898 25.8655 16.3513 24.2942L16.8132 26.7408L18.3054 25.7265C18.825 25.3734 19.1029 24.7664 19.0306 24.1424Z" fill="white"/>
<path d="M28.4041 20.4383L29.7994 4.47698C29.8199 4.24222 29.741 4.00957 29.5818 3.83578C29.4227 3.66198 29.1979 3.56282 28.9623 3.56271L19.2672 3.55371C19.2669 3.55371 19.2666 3.55371 19.2664 3.55371C19.0266 3.55371 18.7982 3.6561 18.6386 3.835C18.4788 4.01413 18.4033 4.2531 18.4308 4.49153L20.6852 23.9509C20.8285 25.1887 20.2724 26.4037 19.2418 27.1042L15.1564 29.8812C14.3778 30.4103 14.1586 31.4613 14.6608 32.2575C14.9522 32.7197 15.4605 33 16.0068 33H21.5142C21.8663 33 22.1815 32.7804 22.3034 32.4502C22.6614 31.4802 23.629 29.4191 25.7905 27.8478L26.7398 32.8752C26.7535 32.9476 26.8168 33 26.8905 33H27.818C27.8918 33 27.9549 32.9476 27.9687 32.8752L29.2479 26.1049C29.6298 25.2997 29.8211 24.4115 29.7523 23.507C29.6651 22.3546 29.1749 21.285 28.4041 20.4383Z" fill="white"/>
</g>
<defs>
<clipPath id="clip0_16_549">
<rect width="33" height="33" fill="white" transform="translate(0.877441)"/>
</clipPath>
</defs>
</svg>
