<svg width="34" height="33" viewBox="0 0 34 33" fill="none" xmlns="http://www.w3.org/2000/svg">
<g clip-path="url(#clip0_16_499)">
<path d="M20.8693 2.73526H22.5311C22.5311 4.1318 23.403 5.32771 24.6307 5.8094L24.6415 5.39861C24.682 3.87522 24.524 2.35316 24.1718 0.87054L24.0485 0.351628C23.9996 0.145459 23.8155 0 23.6037 0H17.8399V6.5665C17.8399 7.02548 17.468 7.39738 17.0091 7.39738C16.5501 7.39738 16.1782 7.02548 16.1782 6.5665V0H10.4143C10.2025 0 10.0184 0.145459 9.96941 0.351628L9.84611 0.870873C9.49392 2.35327 9.33595 3.87511 9.37627 5.39828L9.38713 5.80874C10.6138 5.32649 11.4848 4.13113 11.4848 2.73537H13.1466C13.1466 5.04067 11.5667 6.98371 9.43288 7.53918L10.0942 32.5549C10.1007 32.8027 10.3034 33.0001 10.5514 33.0001H14.7039C14.9442 33.0001 15.1435 32.8141 15.1601 32.5745L16.7297 9.93444C16.7399 9.78821 16.8614 9.67476 17.0081 9.67476C17.1546 9.67476 17.2763 9.78821 17.2864 9.93444L18.8561 32.5745C18.8727 32.8142 19.072 33.0001 19.3123 33.0001H23.4647C23.7125 33.0001 23.9152 32.8027 23.9218 32.555L24.5849 7.53974C22.4501 6.98471 20.8693 5.04122 20.8693 2.73526Z" fill="white"/>
</g>
<defs>
<clipPath id="clip0_16_499">
<rect width="33" height="33" fill="white" transform="translate(0.508789)"/>
</clipPath>
</defs>
</svg>
