<svg width="33" height="33" viewBox="0 0 33 33" fill="none" xmlns="http://www.w3.org/2000/svg">
<path d="M28.3882 8.6823L24.3969 7.80474C25.3142 7.06373 25.2627 5.91784 24.1384 4.96749L19.3086 0.885965C17.9111 -0.295322 15.6237 -0.295322 14.2262 0.885965L9.39714 4.9676C8.38101 5.82647 8.42776 7.02567 9.08751 7.76089L4.65007 8.75642C3.25487 9.07339 2.03174 10.5383 2.03174 11.9553V28.3984C2.03174 29.7211 3.25387 30.8853 4.59653 30.8853H6.33541C6.33519 30.8853 6.26095 30.8016 6.26095 30.7829V17.419C6.26095 16.929 6.6615 16.5317 7.15131 16.5317C7.64134 16.5317 8.04167 16.9289 8.04167 17.419V30.7828C8.04167 32.0365 9.0972 32.9998 10.3128 32.9998H22.6429C23.8626 32.9998 24.8472 32.0365 24.8472 30.7828V17.419C24.8472 16.929 25.2478 16.5317 25.7377 16.5317C26.2275 16.5317 26.628 16.9289 26.628 17.419V30.7828C26.628 30.8015 26.6282 30.8852 26.628 30.8852H28.4739C29.8186 30.8852 30.9685 29.721 30.9685 28.3983V11.8589C30.9682 10.4443 29.7831 8.98958 28.3882 8.6823ZM13.9737 5.17617H19.5175C20.8595 5.17617 21.2642 6.06619 20.417 7.10691L18.2861 9.74383C17.4389 10.7844 16.0525 10.7942 15.2052 9.75362L13.0741 7.10213C12.2269 6.06141 12.6317 5.17617 13.9737 5.17617ZM21.084 28.103H11.8791C11.3891 28.103 10.9919 27.7025 10.9919 27.2126C10.9919 26.7227 11.389 26.3222 11.8791 26.3222H21.084C21.574 26.3222 21.9714 26.7227 21.9714 27.2126C21.9714 27.7025 21.574 28.103 21.084 28.103Z" fill="white"/>
</svg>
