<svg width="33" height="33" viewBox="0 0 33 33" fill="none" xmlns="http://www.w3.org/2000/svg">
<path d="M30.2498 0H2.74998C1.99059 0 1.375 0.615656 1.375 1.37498V12.3749C1.375 13.1342 1.99066 13.7499 2.74998 13.7499H6.19783H15.1249H28.8748H30.2498C31.0092 13.7499 31.6248 13.1342 31.6248 12.3749V1.37498C31.6248 0.615656 31.0092 0 30.2498 0Z" fill="white"/>
<path d="M15.125 16.5V28.8751V31.625C15.125 32.3843 15.7407 33 16.5 33C17.2593 33 17.875 32.3843 17.875 31.625V30.25H20.625V31.625C20.625 32.3843 21.2406 33 22 33C22.7593 33 23.3749 32.3843 23.3749 31.625V30.25H26.1249V31.625C26.1249 32.3843 26.7405 33 27.4999 33C28.2592 33 28.8748 32.3843 28.8748 31.625V28.8751V16.5H15.125Z" fill="white"/>
</svg>
