<svg width="35" height="33" viewBox="0 0 35 33" fill="none" xmlns="http://www.w3.org/2000/svg">
<g clip-path="url(#clip0_16_739)">
<path d="M15.632 15.324H19.1993C19.286 14.7555 19.4454 14.2387 19.6756 13.7737H15.1558C15.386 14.2387 15.5454 14.7556 15.632 15.324Z" fill="white"/>
<path d="M7.48065 12.2415C2.49278 12.2415 0.809326 13.2048 0.809326 16.059C0.809326 19.8379 3.86435 23.0306 7.48065 23.0306C11.1591 23.0306 14.1519 20.0571 14.1519 16.402C14.1517 13.4468 12.219 12.2415 7.48065 12.2415Z" fill="white"/>
<path d="M27.3509 12.2415C22.6125 12.2415 20.6797 13.4468 20.6797 16.402C20.6797 20.057 23.6723 23.0306 27.3509 23.0306C30.9671 23.0306 34.0222 19.838 34.0222 16.059C34.0222 13.2048 32.3388 12.2415 27.3509 12.2415Z" fill="white"/>
<path d="M24.4053 10.7447C24.4053 10.3166 24.0561 9.96948 23.6251 9.96948H11.2062C10.7754 9.96948 10.426 10.3165 10.426 10.7447C11.3059 10.8811 12.0675 11.2341 12.7098 11.5199H22.1216C22.7639 11.234 23.5254 10.881 24.4053 10.7447Z" fill="white"/>
</g>
<defs>
<clipPath id="clip0_16_739">
<rect width="33.2129" height="33" fill="white" transform="translate(0.809326)"/>
</clipPath>
</defs>
</svg>
