<svg width="50" height="45" viewBox="0 0 50 45" fill="none" xmlns="http://www.w3.org/2000/svg">
<path fill-rule="evenodd" clip-rule="evenodd" d="M39 23C39 22.4477 39.4477 22 40 22H44C44.5523 22 45 22.4477 45 23C45 23.5523 44.5523 24 44 24H40C39.4477 24 39 23.5523 39 23Z" fill="white"/>
<path fill-rule="evenodd" clip-rule="evenodd" d="M5 23C5 22.4477 5.44772 22 6 22H10C10.5523 22 11 22.4477 11 23C11 23.5523 10.5523 24 10 24H6C5.44772 24 5 23.5523 5 23Z" fill="white"/>
<path fill-rule="evenodd" clip-rule="evenodd" d="M39 23C39 22.4477 39.4477 22 40 22H44C44.5523 22 45 22.4477 45 23C45 23.5523 44.5523 24 44 24H40C39.4477 24 39 23.5523 39 23Z" fill="white"/>
<path fill-rule="evenodd" clip-rule="evenodd" d="M5 23C5 22.4477 5.44772 22 6 22H10C10.5523 22 11 22.4477 11 23C11 23.5523 10.5523 24 10 24H6C5.44772 24 5 23.5523 5 23Z" fill="white"/>
<mask id="mask0_9_3405" style="mask-type:luminance" maskUnits="userSpaceOnUse" x="35" y="28" width="9" height="7">
<path d="M38.99 28.77L42.45 30.77C43.41 31.32 43.73 32.55 43.18 33.5C42.63 34.46 41.4 34.78 40.45 34.23L36.99 32.23C36.03 31.68 35.71 30.45 36.26 29.5C36.81 28.54 38.04 28.22 38.99 28.77Z" fill="white"/>
</mask>
<g mask="url(#mask0_9_3405)">
<path fill-rule="evenodd" clip-rule="evenodd" d="M37.1241 29.9995C37.4005 29.5213 38.0122 29.3578 38.4904 29.6342L41.9504 31.6342C42.4285 31.9105 42.5921 32.5222 42.3157 33.0004C42.0393 33.4785 41.4276 33.6421 40.9495 33.3657L37.4895 31.3657C37.0113 31.0893 36.8478 30.4776 37.1241 29.9995Z" fill="white"/>
</g>
<mask id="mask1_9_3405" style="mask-type:luminance" maskUnits="userSpaceOnUse" x="6" y="11" width="9" height="7">
<path d="M9.55005 11.77L13.0101 13.77C13.9701 14.32 14.2901 15.55 13.7401 16.5C13.1901 17.46 11.9601 17.78 11.0101 17.23L7.55005 15.23C6.59005 14.68 6.27005 13.45 6.82005 12.5C7.37005 11.54 8.60005 11.22 9.55005 11.77Z" fill="white"/>
</mask>
<g mask="url(#mask1_9_3405)">
<path fill-rule="evenodd" clip-rule="evenodd" d="M7.6842 12.9995C7.96059 12.5213 8.57226 12.3578 9.05042 12.6342L12.5104 14.6342C12.9886 14.9105 13.1521 15.5222 12.8757 16.0004C12.5994 16.4785 11.9877 16.6421 11.5095 16.3657L8.04953 14.3657C7.57138 14.0893 7.40781 13.4776 7.6842 12.9995Z" fill="white"/>
</g>
<mask id="mask2_9_3405" style="mask-type:luminance" maskUnits="userSpaceOnUse" x="30" y="33" width="7" height="9">
<path d="M34.23 34.99L36.23 38.45C36.78 39.41 36.45 40.63 35.5 41.18C34.54 41.73 33.32 41.4 32.77 40.45L30.77 36.99C30.22 36.03 30.55 34.81 31.5 34.26C32.46 33.71 33.68 34.04 34.23 34.99Z" fill="white"/>
</mask>
<g mask="url(#mask2_9_3405)">
<path fill-rule="evenodd" clip-rule="evenodd" d="M31.9995 35.1241C32.4776 34.8478 33.0893 35.0113 33.3657 35.4895L35.3657 38.9495C35.6421 39.4276 35.4785 40.0393 35.0004 40.3157C34.5222 40.5921 33.9105 40.4285 33.6342 39.9504L31.6342 36.4904C31.3578 36.0122 31.5213 35.4005 31.9995 35.1241Z" fill="white"/>
</g>
<mask id="mask3_9_3405" style="mask-type:luminance" maskUnits="userSpaceOnUse" x="13" y="4" width="7" height="9">
<path d="M17.2314 5.5465C16.6792 4.58992 15.456 4.26217 14.4994 4.81445C13.5428 5.36674 13.215 6.58992 13.7673 7.5465L15.7673 11.0106C16.3196 11.9672 17.5428 12.2949 18.4994 11.7427C19.456 11.1904 19.7837 9.96719 19.2314 9.01061L17.2314 5.5465Z" fill="white"/>
</mask>
<g mask="url(#mask3_9_3405)">
<path fill-rule="evenodd" clip-rule="evenodd" d="M14.9997 5.6842C15.4779 5.40781 16.0895 5.57138 16.3659 6.04953L18.3659 9.50953C18.6423 9.98768 18.4788 10.5994 18.0006 10.8757C17.5225 11.1521 16.9108 10.9886 16.6344 10.5104L14.6344 7.05042C14.358 6.57226 14.5216 5.96059 14.9997 5.6842Z" fill="white"/>
</g>
<mask id="mask4_9_3405" style="mask-type:luminance" maskUnits="userSpaceOnUse" x="23" y="36" width="4" height="8">
<path d="M27 38V42C27 43.1 26.1 44 25 44C23.9 44 23 43.1 23 42V38C23 36.9 23.9 36 25 36C26.1 36 27 36.9 27 38Z" fill="white"/>
</mask>
<g mask="url(#mask4_9_3405)">
<path fill-rule="evenodd" clip-rule="evenodd" d="M25 37C25.5523 37 26 37.4477 26 38V42C26 42.5523 25.5523 43 25 43C24.4477 43 24 42.5523 24 42V38C24 37.4477 24.4477 37 25 37Z" fill="white"/>
</g>
<mask id="mask5_9_3405" style="mask-type:luminance" maskUnits="userSpaceOnUse" x="23" y="2" width="4" height="8">
<path d="M27 4V8C27 9.1 26.1 10 25 10C23.9 10 23 9.1 23 8V4C23 2.9 23.9 2 25 2C26.1 2 27 2.9 27 4Z" fill="white"/>
</mask>
<g mask="url(#mask5_9_3405)">
<path fill-rule="evenodd" clip-rule="evenodd" d="M25 3C25.5523 3 26 3.44772 26 4V8C26 8.55228 25.5523 9 25 9C24.4477 9 24 8.55228 24 8V4C24 3.44772 24.4477 3 25 3Z" fill="white"/>
</g>
<mask id="mask6_9_3405" style="mask-type:luminance" maskUnits="userSpaceOnUse" x="13" y="33" width="7" height="9">
<path d="M19.23 36.99L17.23 40.45C16.68 41.41 15.45 41.73 14.5 41.18C13.54 40.63 13.22 39.4 13.77 38.45L15.77 34.99C16.32 34.03 17.55 33.71 18.5 34.26C19.46 34.81 19.78 36.04 19.23 36.99Z" fill="white"/>
</mask>
<g mask="url(#mask6_9_3405)">
<path fill-rule="evenodd" clip-rule="evenodd" d="M18.0004 35.1241C18.4785 35.4005 18.6421 36.0122 18.3657 36.4904L16.3657 39.9504C16.0893 40.4285 15.4776 40.5921 14.9995 40.3157C14.5213 40.0393 14.3578 39.4276 14.6342 38.9495L16.6342 35.4895C16.9105 35.0113 17.5222 34.8478 18.0004 35.1241Z" fill="white"/>
</g>
<mask id="mask7_9_3405" style="mask-type:luminance" maskUnits="userSpaceOnUse" x="30" y="4" width="7" height="9">
<path d="M36.23 7.55005L34.23 11.0101C33.68 11.9701 32.45 12.2901 31.5 11.7401C30.54 11.1901 30.22 9.96005 30.77 9.01005L32.77 5.55005C33.32 4.59005 34.55 4.27005 35.5 4.82005C36.46 5.37005 36.78 6.60005 36.23 7.55005Z" fill="white"/>
</mask>
<g mask="url(#mask7_9_3405)">
<path fill-rule="evenodd" clip-rule="evenodd" d="M35.0004 5.6842C35.4785 5.96059 35.6421 6.57226 35.3657 7.05042L33.3657 10.5104C33.0893 10.9886 32.4776 11.1521 31.9995 10.8757C31.5213 10.5994 31.3578 9.98768 31.6342 9.50953L33.6342 6.04953C33.9105 5.57138 34.5222 5.40781 35.0004 5.6842Z" fill="white"/>
</g>
<mask id="mask8_9_3405" style="mask-type:luminance" maskUnits="userSpaceOnUse" x="6" y="28" width="9" height="7">
<path d="M13.0101 32.23L9.55006 34.23C8.59006 34.78 7.37006 34.45 6.82006 33.5C6.27006 32.54 6.60006 31.32 7.55006 30.77L11.0101 28.77C11.9701 28.22 13.1901 28.55 13.7401 29.5C14.2901 30.46 13.9601 31.68 13.0101 32.23Z" fill="white"/>
</mask>
<g mask="url(#mask8_9_3405)">
<path fill-rule="evenodd" clip-rule="evenodd" d="M12.8757 29.9995C13.1521 30.4776 12.9886 31.0893 12.5104 31.3657L9.05042 33.3657C8.57226 33.6421 7.96059 33.4785 7.6842 33.0004C7.40781 32.5222 7.57138 31.9105 8.04953 31.6342L11.5095 29.6342C11.9877 29.3578 12.5994 29.5213 12.8757 29.9995Z" fill="white"/>
</g>
<mask id="mask9_9_3405" style="mask-type:luminance" maskUnits="userSpaceOnUse" x="35" y="11" width="9" height="7">
<path d="M42.45 15.23L38.99 17.23C38.03 17.78 36.81 17.45 36.26 16.5C35.71 15.54 36.04 14.32 36.99 13.77L40.45 11.77C41.41 11.22 42.63 11.55 43.18 12.5C43.73 13.46 43.4 14.68 42.45 15.23Z" fill="white"/>
</mask>
<g mask="url(#mask9_9_3405)">
<path fill-rule="evenodd" clip-rule="evenodd" d="M42.3157 12.9995C42.5921 13.4776 42.4285 14.0893 41.9504 14.3657L38.4904 16.3657C38.0122 16.6421 37.4005 16.4785 37.1241 16.0004C36.8478 15.5222 37.0113 14.9105 37.4895 14.6342L40.9495 12.6342C41.4276 12.3578 42.0393 12.5213 42.3157 12.9995Z" fill="white"/>
</g>
<path d="M35 23C35 28.52 30.52 33 25 33C19.48 33 15 28.52 15 23C15 17.48 19.48 13 25 13C30.52 13 35 17.48 35 23Z" fill="white"/>
</svg>
