<svg width="34" height="33" viewBox="0 0 34 33" fill="none" xmlns="http://www.w3.org/2000/svg">
<g clip-path="url(#clip0_16_558)">
<path d="M22.5462 24.1843C16.1993 24.1843 10.6953 23.1195 7.24664 21.1631C6.05985 21.739 2.32198 23.6024 1.33313 24.7824C1.13007 25.0248 0.892877 25.6485 0.877519 25.9625C0.866428 26.2073 1.14542 26.9018 1.14542 26.9018C9.53833 30.4495 14.2309 29.098 18.9227 28.1731C23.9139 27.1928 28.4401 23.9975 28.4401 23.9975C28.4776 23.9557 28.5228 23.9139 28.5629 23.8738C26.5042 24.0777 24.4847 24.1843 22.5462 24.1843Z" fill="white"/>
<path d="M22.6801 5.20114L22.6092 5.20284C22.5504 4.41361 21.5956 3.78564 20.4174 3.78564C19.2007 3.78564 18.2144 4.45372 18.2144 5.27878C18.2144 5.29243 18.2195 5.30438 18.2195 5.31803C7.06654 6.4767 7.523 14.2828 7.74995 18.4969C7.79005 19.2349 7.73715 19.961 7.68766 20.4354C12.2361 23.0258 20.6375 23.9771 29.7983 22.8807C31.4953 21.7109 33.8126 20.589 33.8126 20.589C33.8126 20.589 33.9559 16.2597 33.8126 14.8263C33.0575 7.29835 26.6201 5.56376 22.6801 5.20114Z" fill="white"/>
</g>
<defs>
<clipPath id="clip0_16_558">
<rect width="33" height="33" fill="white" transform="translate(0.877441)"/>
</clipPath>
</defs>
</svg>
