<svg width="34" height="33" viewBox="0 0 34 33" fill="none" xmlns="http://www.w3.org/2000/svg">
<g clip-path="url(#clip0_16_564)">
<path d="M32.653 21.8527C32.616 21.1598 32.4904 20.4744 32.2792 19.8134C32.2792 19.8134 30.1806 12.6798 30.1806 11.5016V4.57671C30.1806 4.43243 30.1233 4.29407 30.0212 4.19205C29.9192 4.09003 29.7809 4.03272 29.6366 4.03272H19.0271C18.9556 4.03238 18.8847 4.04622 18.8185 4.07343C18.7524 4.10065 18.6923 4.14071 18.6417 4.19129C18.5911 4.24187 18.551 4.30198 18.5238 4.36813C18.4966 4.43428 18.4828 4.50517 18.4831 4.57671V11.9579C18.4837 12.6743 18.201 13.3619 17.6968 13.8708L12.3858 19.2437C11.3082 20.3342 3.58154 23.825 3.58154 23.825C2.88815 24.1087 2.28374 24.5735 1.83155 25.1708C1.37936 25.7681 1.09601 26.476 1.01115 27.2204V27.223C0.993498 27.3779 0.98489 27.5337 0.985371 27.6896V28.1537C0.985371 28.3697 1.0712 28.5769 1.22399 28.7297C1.37677 28.8825 1.58399 28.9683 1.80006 28.9683H14.8351C16.4497 28.9686 18.0524 28.6922 19.5737 28.1511L23.495 26.7563C23.5771 26.727 23.6652 26.7178 23.7516 26.7296C23.838 26.7414 23.9204 26.7738 23.9917 26.8241C24.063 26.8744 24.1211 26.9411 24.1612 27.0186C24.2013 27.0961 24.2221 27.1821 24.222 27.2694V28.4244C24.2217 28.4959 24.2355 28.5668 24.2627 28.6329C24.2899 28.6991 24.33 28.7592 24.3806 28.8098C24.4312 28.8604 24.4913 28.9004 24.5574 28.9276C24.6236 28.9549 24.6945 28.9687 24.766 28.9683H31.0803C31.2066 28.9682 31.329 28.9242 31.4263 28.8438C31.5237 28.7633 31.5901 28.6515 31.614 28.5275L32.5215 23.776C32.6423 23.1425 32.6865 22.4968 32.653 21.8527Z" fill="white"/>
</g>
<defs>
<clipPath id="clip0_16_564">
<rect width="33" height="33" fill="white" transform="translate(0.323242)"/>
</clipPath>
</defs>
</svg>
