<svg width="33" height="33" viewBox="0 0 33 33" fill="none" xmlns="http://www.w3.org/2000/svg">
<path d="M15.8125 28.1875H28.875V30.25H15.8125V28.1875Z" fill="white"/>
<path d="M29.7687 7.0125C28.4625 6.53125 27.7062 7.21875 27.5 7.90625L25.4375 13.0625C25.4375 13.0625 26.0562 5.29375 26.0562 5.225C26.0562 4.5375 25.575 3.78125 24.6125 3.78125C24.0625 3.78125 23.375 3.91875 23.1687 5.01875L22 13.0625L21.45 4.125C21.3812 3.23125 20.6937 2.40625 19.6625 2.40625C18.425 2.40625 17.875 3.36875 17.875 4.19375V13.0625L16.1562 6.25625C16.0187 5.70625 15.4687 4.95 14.3687 5.225C13.6125 5.43125 13.1312 6.11875 13.2687 6.875L15.125 17.875L10.0375 15.8125C9.48747 15.675 8.73122 16.1562 8.38747 16.8438C7.97497 17.6 8.11247 18.4937 9.07497 19.1125L11.6875 20.625L15.8125 25.4375V26.8125H28.875V17.1875L30.6625 8.8C30.8 8.1125 30.525 7.2875 29.7687 7.0125Z" fill="white"/>
<path d="M14.025 3.84999C14.2313 3.78124 15.0563 3.78124 15.1938 3.78124C14.9188 2.81874 13.9563 2.26874 12.9938 2.47499C12.2375 2.68124 11.6875 3.43749 11.6875 4.19374V12.375L9.96879 5.56874C9.76254 4.81249 9.00629 4.26249 8.18129 4.46874C7.21879 4.74374 6.94379 5.49999 7.08129 6.11874L8.52504 14.7812C9.28129 14.3687 9.96879 14.3 10.5188 14.5062L13.3375 15.5375L11.8938 7.01249C11.6875 5.56874 12.5813 4.19374 14.025 3.84999Z" fill="white"/>
<path d="M8.31875 20.2125C7.08125 19.3875 6.6 17.7375 7.15 16.3625L3.85 15.125C2.8875 15.125 2.0625 15.8813 2.0625 16.9125C2.0625 17.5313 2.3375 18.0812 2.8875 18.425L5.5 19.9375L9.625 24.75V26.125H14.4375L10.7937 21.725L8.31875 20.2125Z" fill="white"/>
<path d="M9.625 27.5V29.5625H14.4375V27.5H9.625Z" fill="white"/>
</svg>
