<svg width="34" height="33" viewBox="0 0 34 33" fill="none" xmlns="http://www.w3.org/2000/svg">
<g clip-path="url(#clip0_16_562)">
<path d="M32.493 8.48676L32.4283 8.40245C31.808 7.59318 30.3552 5.698 28.1102 5.698C26.5118 5.698 19.1409 12.6566 13.2393 18.4943C12.458 19.2698 11.5132 19.8609 10.474 20.2244C8.39166 20.9569 4.67452 22.2681 3.17792 22.8198C1.85199 23.3079 1.03807 25.1195 1.2469 26.2936C1.35931 26.9255 1.76253 27.3022 2.32713 27.3022H16.6203C17.4824 27.3034 18.3341 27.1146 19.115 26.7492C19.8958 26.3838 20.5865 25.8508 21.1379 25.1881C21.4754 24.7833 21.8214 24.3613 22.1733 23.9326C24.3054 21.3336 26.7219 18.3878 28.4515 17.8085C28.4898 17.7917 28.5314 17.7842 28.5731 17.7866C28.6148 17.789 28.6553 17.8013 28.6913 17.8224C28.7257 17.8534 28.7523 17.8921 28.769 17.9352C28.7858 17.9784 28.7922 18.0249 28.7877 18.0709L28.7305 26.495C28.7299 26.6008 28.7502 26.7056 28.7903 26.8036C28.8304 26.9015 28.8894 26.9905 28.964 27.0656C29.0385 27.1406 29.1272 27.2002 29.2249 27.2409C29.3225 27.2816 29.4273 27.3026 29.5331 27.3027H30.0574C30.2561 27.3033 30.4479 27.23 30.5956 27.0972C30.7433 26.9643 30.8363 26.7813 30.8567 26.5836L31.6572 18.9418C31.8132 17.5417 32.1911 16.1754 32.7769 14.8942C33.88 12.431 33.78 10.1558 32.493 8.48676ZM20.8914 17.8969C20.3947 18.5544 19.7522 19.0877 19.0146 19.4549C18.2769 19.8222 17.4641 20.0134 16.6401 20.0136H13.0689C13.0373 20.0137 13.0064 20.0039 12.9806 19.9855C12.9549 19.9672 12.9355 19.9412 12.9253 19.9113C12.9151 19.8814 12.9145 19.849 12.9237 19.8187C12.9328 19.7885 12.9512 19.7618 12.9763 19.7426C13.2604 19.5276 13.5299 19.2941 13.7833 19.0437C22.6448 10.278 26.8521 6.55419 27.9506 6.48819C28.003 6.48689 28.0547 6.5 28.1001 6.52609C28.2472 6.59612 28.3714 6.70632 28.4585 6.84395C28.5456 6.98158 28.592 7.14104 28.5923 7.30391C28.6696 8.84821 23.3432 14.6541 20.8914 17.8974V17.8969Z" fill="white"/>
</g>
<defs>
<clipPath id="clip0_16_562">
<rect width="33" height="33" fill="white" transform="translate(0.877441)"/>
</clipPath>
</defs>
</svg>
