<svg width="34" height="33" viewBox="0 0 34 33" fill="none" xmlns="http://www.w3.org/2000/svg">
<g clip-path="url(#clip0_16_548)">
<path d="M32.7617 19.1684L24.6322 7.86399C24.0683 7.07987 23.1615 6.61495 22.1956 6.61495H20.7291V4.73183C20.7291 3.96727 20.1093 3.34741 19.3447 3.34741H17.2753V12.4873C17.2753 12.9584 16.8934 13.3404 16.4221 13.3404C15.9508 13.3404 15.5689 12.9584 15.5689 12.4873V3.34741H13.4996C12.735 3.34741 12.1152 3.96727 12.1152 4.73183V6.61495H10.8491C9.88315 6.61495 8.97628 7.07975 8.41239 7.86399L0.282691 19.1684C-0.139117 19.755 -0.0388978 20.5674 0.51282 21.0339L2.00758 22.2976C2.55702 22.7621 3.3706 22.7284 3.87978 22.2199L8.2603 17.8451L7.64909 24.3808C7.6128 24.7687 7.74169 25.1539 8.00401 25.4419C8.26235 25.7257 8.62682 25.8883 9.00996 25.8932V28.268C9.00996 29.0325 9.62981 29.6524 10.3944 29.6524H22.6499C23.4145 29.6524 24.0343 29.0325 24.0343 28.268V25.8932C24.4174 25.8883 24.7819 25.7257 25.0404 25.4419C25.3027 25.1539 25.4316 24.7687 25.3953 24.3808L24.7841 17.8451L29.1646 22.2199C29.6737 22.7283 30.4874 22.7621 31.0368 22.2976L32.5316 21.0339C33.0834 20.5674 33.1836 19.7549 32.7617 19.1684Z" fill="white"/>
</g>
<defs>
<clipPath id="clip0_16_548">
<rect width="33" height="33" fill="white" transform="translate(0.0222168)"/>
</clipPath>
</defs>
</svg>
