<svg width="33" height="33" viewBox="0 0 33 33" fill="none" xmlns="http://www.w3.org/2000/svg">
<g clip-path="url(#clip0_16_742)">
<path d="M27.0339 27.1992V31.0664H31.9142C32.4466 31.0664 32.8774 30.634 32.8774 30.0996V27.1992H27.0339Z" fill="white"/>
<path d="M23.181 6.16997V2.90039C23.181 2.64296 23.0593 2.32444 22.7925 2.12528C22.6768 2.03839 19.9095 0 16.4386 0C12.9677 0 10.2004 2.03839 10.0847 2.12528C9.81787 2.32444 9.69618 2.64296 9.69618 2.90039V6.16997L7.76978 7.13677C7.76978 13.2113 7.76978 28.2281 7.76978 32.0332C7.76978 32.5671 8.20103 33 8.73298 33H24.1442C24.6762 33 25.1074 32.5671 25.1074 32.0332C25.1074 21.3709 25.1074 18.6308 25.1074 7.13677L23.181 6.16997ZM17.2165 4.97842L16.4385 6.5398L15.6607 4.97939C15.3833 4.42045 14.9242 3.95974 14.3683 3.68118L12.6989 2.84316C13.6524 2.39469 14.9805 1.93359 16.4386 1.93359C17.8968 1.93359 19.225 2.39482 20.1785 2.84329L18.5099 3.68118C17.953 3.95968 17.494 4.42045 17.2165 4.97842ZM22.2178 15.4688H20.2914C19.759 15.4688 19.3282 15.0363 19.3282 14.502C19.3282 13.9676 19.759 13.5352 20.2914 13.5352H22.2178C22.7502 13.5352 23.181 13.9676 23.181 14.502C23.181 15.0363 22.7502 15.4688 22.2178 15.4688Z" fill="white"/>
<path d="M0 27.1992V30.0996C0 30.634 0.430808 31.0664 0.963203 31.0664H5.84343V27.1992H0Z" fill="white"/>
<path d="M0 13.5352C0 17.7731 0 21.0243 0 25.2656H5.84343C5.84343 19.6221 5.84343 12.7181 5.84343 7.85909V7.73438C2.65163 7.73438 0 10.3314 0 13.5352Z" fill="white"/>
<path d="M27.0339 7.73438V7.85909C27.0339 23.3734 27.0339 9.6594 27.0339 25.2656H32.8774C32.8774 14.9944 32.8774 18.0939 32.8774 13.5352C32.8774 10.3314 30.2257 7.73438 27.0339 7.73438Z" fill="white"/>
</g>
<defs>
<clipPath id="clip0_16_742">
<rect width="32.8773" height="33" fill="white"/>
</clipPath>
</defs>
</svg>
