<svg width="33" height="33" viewBox="0 0 33 33" fill="none" xmlns="http://www.w3.org/2000/svg">
<g clip-path="url(#clip0_16_745)">
<path d="M30.2002 1.97956C28.8951 0.670525 27.4541 0.00537109 25.9193 0.00537109H25.9167C23.0281 0.00537109 20.3017 2.39915 18.5031 4.20048C17.5239 5.18094 16.5949 5.42908 16.1475 5.243C15.6645 5.04372 15.5933 4.27176 15.5933 3.82968C15.5933 2.49815 14.8002 1.50848 13.6217 1.36726C11.9762 1.15347 9.8265 2.67765 8.91069 6.44383C7.60165 11.8358 6.28726 14.5555 3.69555 17.2212L3.66919 17.2502L15.5221 29.1044L28.1891 16.0638C34.7648 9.29419 33.7474 5.53723 30.2002 1.97956Z" fill="white"/>
<path d="M0.572051 20.4372C-0.190684 21.2224 -0.190684 22.451 0.572051 23.2348L9.46371 32.3891C9.84244 32.7796 10.3532 32.9948 10.8968 32.9948C11.4405 32.9948 11.9512 32.7797 12.3313 32.3891L14.6037 30.0507L2.74811 18.1965L0.572051 20.4372Z" fill="white"/>
</g>
<defs>
<clipPath id="clip0_16_745">
<rect width="33" height="33" fill="white"/>
</clipPath>
</defs>
</svg>
