<svg width="33" height="33" viewBox="0 0 33 33" fill="none" xmlns="http://www.w3.org/2000/svg">
<path d="M10.6253 6.60497C10.6204 7.79371 10.5013 8.96736 10.2732 10.1182H13.7442V9.36384C13.7442 8.8638 14.1494 8.45862 14.6494 8.45862H18.391C18.8911 8.45862 19.2962 8.8638 19.2962 9.36384V10.1182H22.7308C22.5012 8.96241 22.3801 7.78514 22.3749 6.60509C23.3381 6.01936 23.9777 4.99247 23.9777 3.82305C23.9777 2.00187 23.2035 0 22.3387 0C20.8069 0 18.3372 2.12075 17.4181 3.90066C17.2999 4.12938 17.0634 4.27373 16.8059 4.27373H16.1957C15.938 4.27373 15.7018 4.12962 15.5835 3.90066C14.6643 2.12075 12.194 0 10.6615 0C9.796 0 9.02246 2.00187 9.02246 3.82293C9.02246 4.99235 9.66203 6.01911 10.6253 6.60497Z" fill="white"/>
<path d="M24.0555 14.2294C23.7146 13.4823 23.4237 12.7132 23.1843 11.9287H19.2961V12.6831C19.2961 13.1831 18.8909 13.5883 18.3909 13.5883H14.6493C14.1493 13.5883 13.7441 13.1831 13.7441 12.6831V11.9287H9.8187C9.5796 12.7097 9.28812 13.4776 8.94511 14.2295C6.99405 18.5059 6.71862 25.202 6.64778 31.7708C6.64428 32.0956 6.77089 32.4082 6.99924 32.6391C7.2276 32.87 7.539 33.0001 7.86379 33.0001H25.1365C25.4613 33.0001 25.7727 32.8701 26.001 32.6392C26.2295 32.4083 26.356 32.0956 26.3524 31.7708C26.2815 25.2019 26.0071 18.5058 24.0555 14.2294Z" fill="white"/>
<path d="M17.4856 10.269H15.5544V11.7777H17.4856V10.269Z" fill="white"/>
</svg>
