<svg width="34" height="33" viewBox="0 0 34 33" fill="none" xmlns="http://www.w3.org/2000/svg">
<path fill-rule="evenodd" clip-rule="evenodd" d="M15.9341 30.7157L5.0376 12.1599C8.39952 13.3082 10.8686 12.4725 12.4464 9.6376C13.3173 11.2251 14.9962 12.3004 16.9253 12.3004C18.849 12.3004 20.5237 11.2306 21.3973 9.65001C22.9737 12.4945 25.4454 13.3358 28.8131 12.1724L17.9123 30.7155V32.0427C17.9123 32.5563 17.4967 32.9748 16.9868 32.9748H16.8583C16.3483 32.9748 15.9327 32.5563 15.9327 32.0427L15.9341 30.7157ZM20.4173 12.6213L17.4601 26.5453C17.3671 26.9859 18.0329 27.1291 18.1259 26.6871L21.0831 12.7631C21.1227 12.5773 21.0052 12.3955 20.8206 12.357C20.6374 12.3184 20.4569 12.4368 20.4173 12.6213ZM12.7624 12.7645L15.7197 26.6885C15.8126 27.1305 16.4785 26.9873 16.3855 26.5467L13.4296 12.6213C13.3353 12.1793 12.6695 12.3226 12.7624 12.7645ZM16.108 5.41235H16.3007V11.5711C16.715 11.6303 17.1347 11.6303 17.549 11.5711L17.5503 5.41235H17.7431V3.36087C17.7431 2.41636 18.5101 1.64533 19.4466 1.64533C20.4037 1.64533 21.1843 2.38746 21.1843 3.36087V4.18421H22.8181V3.36087C22.8181 1.47875 21.3046 0 19.4453 0C17.6064 0 16.1079 1.50899 16.1079 3.36087L16.108 5.41235Z" fill="white"/>
</svg>
