<svg width="35" height="33" viewBox="0 0 35 33" fill="none" xmlns="http://www.w3.org/2000/svg">
<path d="M30.1182 23.5078C29.4255 23.5284 28.6382 23.5418 27.7793 23.55L30.02 16.9062H30.6076C30.6769 16.9064 30.7455 16.8931 30.8096 16.867C30.8737 16.841 30.9319 16.8027 30.9809 16.7544C31.03 16.7062 31.0689 16.6488 31.0955 16.5857C31.122 16.5225 31.1357 16.4548 31.1357 16.3865V14.6001C31.1357 14.4622 31.0802 14.33 30.9814 14.2325C30.8826 14.135 30.7486 14.0801 30.6089 14.0801H21.1934C21.0536 14.0801 20.9195 14.1349 20.8207 14.2324C20.7219 14.3299 20.6663 14.4622 20.6663 14.6001V16.3865C20.6663 16.4547 20.68 16.5224 20.7064 16.5854C20.7329 16.6485 20.7718 16.7058 20.8207 16.7541C20.8696 16.8023 20.9277 16.8406 20.9917 16.8667C21.0556 16.8928 21.1242 16.9063 21.1934 16.9062H27.1556L24.9113 23.5606C23.452 23.5591 21.8829 23.5498 20.2749 23.5379C20.2749 23.5379 16.403 18.5621 15.0147 16.7655C14.9649 16.6889 14.8975 16.625 14.8181 16.5789C14.7386 16.5327 14.6492 16.5057 14.5572 16.4999H13.2682C13.1889 16.4999 13.1105 16.5176 13.039 16.5517C12.9676 16.5858 12.9048 16.6353 12.8555 16.6967C12.8061 16.758 12.7715 16.8296 12.7541 16.906C12.7367 16.9824 12.737 17.0617 12.7551 17.138L14.2444 23.492C13.1679 23.4853 12.1136 23.4804 11.1026 23.4791C11.1026 23.4791 8.86827 21.7583 7.94694 21.1114C7.84356 21.0205 7.7135 20.9644 7.57563 20.9513H6.0447C5.96248 20.9513 5.88141 20.9703 5.80797 21.0068C5.73453 21.0433 5.67075 21.0962 5.62175 21.1614C5.57274 21.2265 5.53986 21.302 5.52574 21.382C5.51161 21.4619 5.51663 21.5439 5.5404 21.6216L6.12126 23.5165C4.05702 23.5611 2.57364 23.6514 2.07874 23.8179C1.67112 23.9551 1.54543 24.1789 1.66067 24.3717H1.66145L1.97501 25.8036C2.06503 26.2194 2.29692 26.5922 2.63195 26.8597C2.96698 27.1271 3.38488 27.2731 3.81584 27.2731H15.2967C16.0083 27.2728 16.7189 27.2211 17.4229 27.1184C19.2862 26.8475 23.013 26.3404 23.013 26.6167V27.0148C23.013 27.0832 23.0406 27.1487 23.0896 27.1971C23.1386 27.2454 23.205 27.2726 23.2743 27.2726H32.4916C32.6121 27.2726 32.729 27.2318 32.8227 27.157C32.9164 27.0822 32.9813 26.978 33.0066 26.8616L33.6394 24.5614C33.8048 23.9597 33.2961 23.4 30.1182 23.5078ZM8.12044 23.5011L7.84268 22.7359L8.87323 23.4985C8.73788 23.4993 8.25422 23.5003 8.12044 23.5011ZM16.6199 23.5091L16.1472 21.4935L17.6855 23.5176L16.6199 23.5091Z" fill="white"/>
</svg>
