<svg width="34" height="33" viewBox="0 0 34 33" fill="none" xmlns="http://www.w3.org/2000/svg">
<g clip-path="url(#clip0_16_743)">
<path d="M16.8615 20.1003V5.0459H8.96151L0.838867 25.7987L12.4753 30.9553L16.8615 20.1003Z" fill="white"/>
<path d="M17.816 13.1352C20.5145 11.6937 20.6961 8.0288 20.7474 5.28663C20.7492 5.19096 20.7758 5.11195 20.8159 5.0459H17.8159V13.1352H17.816Z" fill="white"/>
<path d="M21.6428 5.0459C21.6806 5.11182 21.7041 5.19083 21.702 5.28663C21.6398 8.61644 21.2411 12.6891 17.8162 14.1852V20.1002L22.2023 30.9553L33.8389 25.7987L25.7162 5.0459H21.6428Z" fill="white"/>
<path d="M25.7247 2.04468H8.95288V4.24846H16.8615H17.8161H25.7247V2.04468Z" fill="white"/>
</g>
<defs>
<clipPath id="clip0_16_743">
<rect width="33" height="33" fill="white" transform="translate(0.838867)"/>
</clipPath>
</defs>
</svg>
