<svg width="33" height="33" viewBox="0 0 33 33" fill="none" xmlns="http://www.w3.org/2000/svg">
<path d="M24.4327 24.8623L27.5583 21.7199L21.5328 15.6583V0H15.7009V14.8575L22.5388 21.7361C23.4236 22.6263 24.0657 23.6953 24.4327 24.8623Z" fill="white"/>
<path d="M28.9336 23.1035L28.9176 23.0874L24.7896 27.2371C24.7814 29.2376 24.0232 31.1199 22.6487 32.559C23.3541 32.8526 24.106 33.0001 24.8585 33.0001C26.3331 32.9998 27.8079 32.4359 28.9313 31.3072C30.021 30.2122 30.6215 28.7555 30.622 27.2059C30.6225 25.6562 30.0227 24.1992 28.9336 23.1035Z" fill="white"/>
<path d="M3.20413 15.6685L2.24292 15.6672V20.4458L5.56109 23.7863L6.31028 23.1294C7.1178 22.3039 7.56211 21.213 7.56211 20.0536C7.56211 17.6358 5.60715 15.6685 3.20413 15.6685Z" fill="white"/>
<path d="M13.7784 15.6583V0H2.24292V13.7333L3.20563 13.7348C6.66723 13.7348 9.48478 16.5695 9.48478 20.0535C9.48478 21.7393 8.83271 23.325 7.64872 24.5181L7.59991 24.5639L6.92305 25.1574L11.6558 29.9221L19.808 21.7237L13.7784 15.6583Z" fill="white"/>
<path d="M21.1792 23.1034L21.1672 23.0913L13.0144 31.2899L13.0274 31.303C14.1511 32.4345 15.6274 33.0002 17.104 33C18.5786 32.9997 20.0538 32.4358 21.1769 31.3071C22.2668 30.2121 22.8673 28.7554 22.8675 27.2057C22.868 25.6561 22.2685 24.1991 21.1792 23.1034Z" fill="white"/>
</svg>
