<svg width="34" height="33" viewBox="0 0 34 33" fill="none" xmlns="http://www.w3.org/2000/svg">
<g clip-path="url(#clip0_16_551)">
<path d="M19.9572 25.2711C19.7207 25.5073 19.3602 25.5907 19.0288 25.4574C18.9186 25.413 18.8211 25.3415 18.7371 25.2575L16.7909 23.3112C16.6425 23.1628 16.4022 23.1628 16.2538 23.3112L14.294 25.2711C13.9607 25.6041 13.4206 25.6041 13.0874 25.2711L11.1271 23.3106C10.979 23.1625 10.7389 23.1623 10.5906 23.31L7.81006 25.5104L7.64932 27.0719C7.6037 27.5603 7.81973 28.0444 8.23437 28.3357C8.47633 28.5056 8.7705 28.5852 9.06615 28.5852H23.9787C24.2743 28.5852 24.5685 28.5056 24.8105 28.3357C25.2251 28.0444 25.4412 27.5603 25.3955 27.0719L25.233 25.4782L22.4541 23.3074C22.3056 23.1608 22.0664 23.1617 21.9189 23.3092L19.9572 25.2711Z" fill="white"/>
<path d="M32.7617 16.968L24.6322 5.66359C24.0683 4.87947 23.1615 4.41455 22.1956 4.41455H20.8686C20.5508 4.41455 20.2826 4.64718 20.2367 4.96172C19.9718 6.77568 18.4097 8.16862 16.5223 8.16862C14.6349 8.16862 13.0728 6.77568 12.8079 4.96172C12.7621 4.64798 12.4932 4.41455 12.176 4.41455H10.8489C9.88303 4.41455 8.97617 4.87936 8.41228 5.66359L0.282691 16.968C-0.139117 17.5546 -0.0388978 18.367 0.51282 18.8335L2.00758 20.0973C2.55702 20.5619 3.3706 20.5281 3.87978 20.0196L8.2603 15.6447L7.81176 23.6693L10.2556 21.2326C10.5889 20.8995 11.129 20.8995 11.4622 21.2326L13.6906 23.4611L15.9189 21.2326C16.079 21.0727 16.2959 20.9828 16.5223 20.9828C16.7486 20.9828 16.9655 21.0727 17.1257 21.2327L19.3539 23.4611L21.5823 21.2326C21.9156 20.8995 22.4557 20.8995 22.7889 21.2326L25.2042 23.5954L24.7842 15.6447L29.1647 20.0196C29.6738 20.528 30.4875 20.5618 31.0369 20.0973L32.5317 18.8335C33.0834 18.367 33.1836 17.5545 32.7617 16.968Z" fill="white"/>
</g>
<defs>
<clipPath id="clip0_16_551">
<rect width="33" height="33" fill="white" transform="translate(0.0222168)"/>
</clipPath>
</defs>
</svg>
