<svg width="26" height="32" viewBox="0 0 26 32" fill="none" xmlns="http://www.w3.org/2000/svg">
<path d="M22.9723 5.49914L18.7313 3.6893C17.3701 3.0757 16.4677 1.75055 16.3981 0.260391C16.3955 0.121172 16.2847 0.00773437 16.1455 0H9.38562C9.2464 0.00773437 9.13554 0.121172 9.13297 0.260391C9.06336 1.75055 8.16101 3.0757 6.79976 3.6893L2.55875 5.49914C0.852029 6.33703 -0.15344 8.14945 0.0476539 10.0418L1.95804 31.2005C1.98125 31.4686 2.20554 31.6748 2.47625 31.6748H5.88195C6.14492 31.6748 6.36664 31.4763 6.39758 31.2159L6.76883 28.0345C6.76883 28.0242 6.7714 28.0139 6.7714 28.0036C6.7714 27.8618 6.65539 27.7458 6.51359 27.7458H6.12172C5.66797 27.7432 5.2864 27.408 5.22711 26.9595L3.35281 12.4369C3.32703 12.2255 3.47656 12.0295 3.68797 12.0037C3.89937 11.978 4.09531 12.1275 4.12109 12.3389L5.99539 26.8589C6.00312 26.9234 6.05726 26.9723 6.12172 26.9723H19.4094C19.4738 26.9723 19.528 26.9234 19.5357 26.8589L21.41 12.3389C21.4358 12.1275 21.6317 11.978 21.8431 12.0037C22.0545 12.0295 22.2041 12.2255 22.1783 12.4369L20.304 26.9595C20.2447 27.408 19.8631 27.7432 19.4094 27.7458H19.0175C19.0072 27.7458 18.9995 27.7458 18.9891 27.7484C18.8473 27.7638 18.7468 27.8927 18.7623 28.0345L19.1335 31.2159C19.1644 31.4763 19.3862 31.6748 19.6491 31.6748H23.0548C23.3255 31.6748 23.5498 31.4686 23.573 31.2005L25.4834 10.0418C25.6845 8.14945 24.6791 6.33703 22.9723 5.49914ZM16.1016 3.90586H9.42945C9.21547 3.90586 9.04273 3.73312 9.04273 3.51914C9.04273 3.30516 9.21547 3.13242 9.42945 3.13242H16.1016C16.3156 3.13242 16.4884 3.30516 16.4884 3.51914C16.4884 3.73312 16.3156 3.90586 16.1016 3.90586Z" fill="white"/>
</svg>
