<svg width="33" height="33" viewBox="0 0 33 33" fill="none" xmlns="http://www.w3.org/2000/svg">
<g clip-path="url(#clip0_16_560)">
<path d="M20.7898 5.33637C20.8187 5.13502 20.8343 4.92967 20.8343 4.72052C20.8343 2.33059 18.89 0.38623 16.5 0.38623C14.1101 0.38623 12.1657 2.33059 12.1657 4.72052C12.1657 4.92967 12.1815 5.13515 12.2102 5.33637C6.73865 7.1417 2.77832 12.302 2.77832 18.3706V20.9195H30.2218V18.3706C30.2218 12.302 26.2615 7.1417 20.7898 5.33637Z" fill="white"/>
<path d="M29.184 23.0688H3.81595C1.70846 23.0688 0 24.7774 0 26.8848V28.7865C0 30.9002 1.71355 32.6137 3.82723 32.6137H29.1727C31.2864 32.6137 33 30.9002 33 28.7864V26.8848C33 24.7773 31.2915 23.0688 29.184 23.0688Z" fill="white"/>
</g>
<defs>
<clipPath id="clip0_16_560">
<rect width="33" height="33" fill="white"/>
</clipPath>
</defs>
</svg>
