<svg width="50" height="45" viewBox="0 0 50 45" fill="none" xmlns="http://www.w3.org/2000/svg">
<g clip-path="url(#clip0_9_3453)">
<path d="M15.75 20.25H18.75C19.58 20.25 20.25 20.92 20.25 21.75C20.25 22.58 19.58 23.25 18.75 23.25H15.75C14.92 23.25 14.25 22.58 14.25 21.75C14.25 20.92 14.92 20.25 15.75 20.25Z" fill="white"/>
<mask id="mask0_9_3453" style="mask-type:luminance" maskUnits="userSpaceOnUse" x="14" y="20" width="7" height="4">
<path d="M15.75 20.25H18.75C19.58 20.25 20.25 20.92 20.25 21.75C20.25 22.58 19.58 23.25 18.75 23.25H15.75C14.92 23.25 14.25 22.58 14.25 21.75C14.25 20.92 14.92 20.25 15.75 20.25Z" fill="white"/>
</mask>
<g mask="url(#mask0_9_3453)">
<path fillRule="evenodd" clip-rule="evenodd" d="M15 22C15 21.4477 15.4477 21 16 21H18.5C19.0523 21 19.5 21.4477 19.5 22C19.5 22.5523 19.0523 23 18.5 23H16C15.4477 23 15 22.5523 15 22Z" fill="white"/>
</g>
<path d="M15.75 20.25H18.75C19.58 20.25 20.25 20.92 20.25 21.75C20.25 22.58 19.58 23.25 18.75 23.25H15.75C14.92 23.25 14.25 22.58 14.25 21.75C14.25 20.92 14.92 20.25 15.75 20.25Z" fill="white"/>
<mask id="mask1_9_3453" style="mask-type:luminance" maskUnits="userSpaceOnUse" x="14" y="20" width="7" height="4">
<path d="M15.75 20.25H18.75C19.58 20.25 20.25 20.92 20.25 21.75C20.25 22.58 19.58 23.25 18.75 23.25H15.75C14.92 23.25 14.25 22.58 14.25 21.75C14.25 20.92 14.92 20.25 15.75 20.25Z" fill="white"/>
</mask>
<g mask="url(#mask1_9_3453)">
<path fillRule="evenodd" clip-rule="evenodd" d="M15 22C15 21.4477 15.4477 21 16 21H18.5C19.0523 21 19.5 21.4477 19.5 22C19.5 22.5523 19.0523 23 18.5 23H16C15.4477 23 15 22.5523 15 22Z" fill="white"/>
</g>
<mask id="mask2_9_3453" style="mask-type:luminance" maskUnits="userSpaceOnUse" x="39" y="20" width="7" height="4">
<path d="M41.25 20.25H44.25C45.08 20.25 45.75 20.92 45.75 21.75C45.75 22.58 45.08 23.25 44.25 23.25H41.25C40.42 23.25 39.75 22.58 39.75 21.75C39.75 20.92 40.42 20.25 41.25 20.25Z" fill="white"/>
</mask>
<g mask="url(#mask2_9_3453)">
<path fillRule="evenodd" clip-rule="evenodd" d="M40.5 22C40.5 21.4477 40.9477 21 41.5 21H44C44.5523 21 45 21.4477 45 22C45 22.5523 44.5523 23 44 23H41.5C40.9477 23 40.5 22.5523 40.5 22Z" fill="white"/>
</g>
<mask id="mask3_9_3453" style="mask-type:luminance" maskUnits="userSpaceOnUse" x="14" y="20" width="7" height="4">
<path d="M15.75 20.25H18.75C19.58 20.25 20.25 20.92 20.25 21.75C20.25 22.58 19.58 23.25 18.75 23.25H15.75C14.92 23.25 14.25 22.58 14.25 21.75C14.25 20.92 14.92 20.25 15.75 20.25Z" fill="white"/>
</mask>
<g mask="url(#mask3_9_3453)">
<path fillRule="evenodd" clip-rule="evenodd" d="M15 22C15 21.4477 15.4477 21 16 21H18.5C19.0523 21 19.5 21.4477 19.5 22C19.5 22.5523 19.0523 23 18.5 23H16C15.4477 23 15 22.5523 15 22Z" fill="white"/>
</g>
<mask id="mask4_9_3453" style="mask-type:luminance" maskUnits="userSpaceOnUse" x="39" y="20" width="7" height="4">
<path d="M41.25 20.25H44.25C45.08 20.25 45.75 20.92 45.75 21.75C45.75 22.58 45.08 23.25 44.25 23.25H41.25C40.42 23.25 39.75 22.58 39.75 21.75C39.75 20.92 40.42 20.25 41.25 20.25Z" fill="white"/>
</mask>
<g mask="url(#mask4_9_3453)">
<path fillRule="evenodd" clip-rule="evenodd" d="M40.5 22C40.5 21.4477 40.9477 21 41.5 21H44C44.5523 21 45 21.4477 45 22C45 22.5523 44.5523 23 44 23H41.5C40.9477 23 40.5 22.5523 40.5 22Z" fill="white"/>
</g>
<mask id="mask5_9_3453" style="mask-type:luminance" maskUnits="userSpaceOnUse" x="14" y="20" width="7" height="4">
<path d="M15.75 20.25H18.75C19.58 20.25 20.25 20.92 20.25 21.75C20.25 22.58 19.58 23.25 18.75 23.25H15.75C14.92 23.25 14.25 22.58 14.25 21.75C14.25 20.92 14.92 20.25 15.75 20.25Z" fill="white"/>
</mask>
<g mask="url(#mask5_9_3453)">
<path fillRule="evenodd" clip-rule="evenodd" d="M15 22C15 21.4477 15.4477 21 16 21H18.5C19.0523 21 19.5 21.4477 19.5 22C19.5 22.5523 19.0523 23 18.5 23H16C15.4477 23 15 22.5523 15 22Z" fill="white"/>
</g>
<mask id="mask6_9_3453" style="mask-type:luminance" maskUnits="userSpaceOnUse" x="38" y="25" width="6" height="6">
<path d="M40.4899 26.08L43.0899 27.58C43.8099 27.99 44.0499 28.91 43.6399 29.63C43.2299 30.35 42.3099 30.59 41.5899 30.18L38.9899 28.68C38.2699 28.27 38.0299 27.35 38.4399 26.63C38.8499 25.91 39.7699 25.67 40.4899 26.08Z" fill="white"/>
</mask>
<g mask="url(#mask6_9_3453)">
<path fillRule="evenodd" clip-rule="evenodd" d="M38.9635 27.221C39.2392 26.7424 39.8506 26.5779 40.3291 26.8536L42.4991 28.1036C42.9777 28.3793 43.1422 28.9907 42.8665 29.4693C42.5908 29.9478 41.9794 30.1123 41.5009 29.8367L39.3309 28.5867C38.8523 28.311 38.6878 27.6996 38.9635 27.221Z" fill="white"/>
</g>
<mask id="mask7_9_3453" style="mask-type:luminance" maskUnits="userSpaceOnUse" x="21" y="7" width="5" height="7">
<path d="M24.17 8.66006L25.67 11.2601C26.08 11.9801 25.84 12.8901 25.12 13.3101C24.4 13.7201 23.49 13.4801 23.07 12.7601L21.57 10.1601C21.16 9.44006 21.4 8.53005 22.12 8.11005C22.84 7.70005 23.75 7.94006 24.17 8.66006Z" fill="white"/>
</mask>
<g mask="url(#mask7_9_3453)">
<path fillRule="evenodd" clip-rule="evenodd" d="M22.2808 8.88365C22.7594 8.60798 23.3708 8.77246 23.6465 9.25102L24.8965 11.421C25.1721 11.8996 25.0077 12.511 24.5291 12.7867C24.0505 13.0624 23.4391 12.8979 23.1634 12.4193L21.9134 10.2493C21.6378 9.77075 21.8022 9.15932 22.2808 8.88365Z" fill="white"/>
</g>
<mask id="mask8_9_3453" style="mask-type:luminance" maskUnits="userSpaceOnUse" x="28" y="31" width="4" height="7">
<path d="M31.5 33V36C31.5 36.83 30.83 37.5 30 37.5C29.17 37.5 28.5 36.83 28.5 36V33C28.5 32.17 29.17 31.5 30 31.5C30.83 31.5 31.5 32.17 31.5 33Z" fill="white"/>
</mask>
<g mask="url(#mask8_9_3453)">
<path fillRule="evenodd" clip-rule="evenodd" d="M29.75 32.25C30.3023 32.25 30.75 32.6977 30.75 33.25V35.75C30.75 36.3023 30.3023 36.75 29.75 36.75C29.1977 36.75 28.75 36.3023 28.75 35.75V33.25C28.75 32.6977 29.1977 32.25 29.75 32.25Z" fill="white"/>
</g>
<mask id="mask9_9_3453" style="mask-type:luminance" maskUnits="userSpaceOnUse" x="28" y="6" width="4" height="6">
<path d="M31.5 7.5V10.5C31.5 11.33 30.83 12 30 12C29.17 12 28.5 11.33 28.5 10.5V7.5C28.5 6.67 29.17 6 30 6C30.83 6 31.5 6.67 31.5 7.5Z" fill="white"/>
</mask>
<g mask="url(#mask9_9_3453)">
<path fillRule="evenodd" clip-rule="evenodd" d="M29.75 6.75C30.3023 6.75 30.75 7.19772 30.75 7.75V10.25C30.75 10.8023 30.3023 11.25 29.75 11.25C29.1977 11.25 28.75 10.8023 28.75 10.25V7.75C28.75 7.19772 29.1977 6.75 29.75 6.75Z" fill="white"/>
</g>
<mask id="mask10_9_3453" style="mask-type:luminance" maskUnits="userSpaceOnUse" x="21" y="29" width="5" height="7">
<path d="M25.67 32.2399L24.17 34.8399C23.76 35.5599 22.84 35.7999 22.12 35.3899C21.4 34.9799 21.16 34.0599 21.57 33.3399L23.07 30.7399C23.48 30.0199 24.4 29.7799 25.12 30.1899C25.84 30.5999 26.08 31.5199 25.67 32.2399Z" fill="white"/>
</mask>
<g mask="url(#mask10_9_3453)">
<path fillRule="evenodd" clip-rule="evenodd" d="M24.5291 30.7135C25.0077 30.9892 25.1721 31.6006 24.8965 32.0791L23.6465 34.2491C23.3708 34.7277 22.7594 34.8922 22.2808 34.6165C21.8022 34.3408 21.6378 33.7294 21.9134 33.2509L23.1634 31.0809C23.4391 30.6023 24.0505 30.4378 24.5291 30.7135Z" fill="white"/>
</g>
<mask id="mask11_9_3453" style="mask-type:luminance" maskUnits="userSpaceOnUse" x="34" y="7" width="5" height="7">
<path d="M38.42 10.1601L36.92 12.7601C36.51 13.4801 35.59 13.7201 34.87 13.3101C34.15 12.9001 33.91 11.9801 34.32 11.2601L35.82 8.66006C36.23 7.94006 37.15 7.70005 37.87 8.11005C38.59 8.52005 38.83 9.44006 38.42 10.1601Z" fill="white"/>
</mask>
<g mask="url(#mask11_9_3453)">
<path fillRule="evenodd" clip-rule="evenodd" d="M37.2791 8.63365C37.7577 8.90932 37.9221 9.52075 37.6465 9.99931L36.3965 12.1693C36.1208 12.6479 35.5094 12.8124 35.0308 12.5367C34.5522 12.261 34.3878 11.6496 34.6634 11.171L35.9134 9.00102C36.1891 8.52246 36.8005 8.35798 37.2791 8.63365Z" fill="white"/>
</g>
<mask id="mask12_9_3453" style="mask-type:luminance" maskUnits="userSpaceOnUse" x="16" y="25" width="6" height="6">
<path d="M21.0101 28.67L18.4101 30.17C17.6901 30.58 16.7801 30.34 16.3601 29.62C15.9501 28.9 16.1901 27.99 16.9101 27.57L19.5101 26.07C20.2301 25.66 21.1401 25.9 21.5601 26.62C21.9701 27.34 21.7301 28.25 21.0101 28.67Z" fill="white"/>
</mask>
<g mask="url(#mask12_9_3453)">
<path fillRule="evenodd" clip-rule="evenodd" d="M20.7867 26.7808C21.0624 27.2594 20.8979 27.8708 20.4193 28.1465L18.2493 29.3965C17.7707 29.6721 17.1593 29.5077 16.8837 29.0291C16.608 28.5505 16.7725 27.9391 17.251 27.6634L19.421 26.4134C19.8996 26.1378 20.511 26.3022 20.7867 26.7808Z" fill="white"/>
</g>
<mask id="mask13_9_3453" style="mask-type:luminance" maskUnits="userSpaceOnUse" x="38" y="13" width="6" height="5">
<path d="M43.0899 15.92L40.4899 17.42C39.7699 17.83 38.8599 17.59 38.4399 16.87C38.0299 16.15 38.2699 15.24 38.9899 14.82L41.5899 13.32C42.3099 12.91 43.2199 13.15 43.6399 13.87C44.0499 14.59 43.8099 15.5 43.0899 15.92Z" fill="white"/>
</mask>
<g mask="url(#mask13_9_3453)">
<path fillRule="evenodd" clip-rule="evenodd" d="M42.8665 14.0308C43.1422 14.5094 42.9777 15.1208 42.4991 15.3965L40.3291 16.6465C39.8506 16.9221 39.2392 16.7577 38.9635 16.2791C38.6878 15.8005 38.8523 15.1891 39.3309 14.9134L41.5009 13.6634C41.9794 13.3878 42.5908 13.5522 42.8665 14.0308Z" fill="white"/>
</g>
<path fillRule="evenodd" clip-rule="evenodd" d="M30.81 25.81C30.81 25.81 30.99 26.75 31.06 26.75C34.45 27.23 37 29.21 37 32.74C37 36.61 33.87 39.74 30 39.74H12C8.13 39.74 5 36.61 5 32.74C5 29.21 7.61 26.29 11 25.81C11.06 25.81 11.12 25.8 11.18 25.81C12.08 21.21 16.13 17.75 20.99 17.75C25.85 17.75 29.9 21.22 30.8 25.81H30.81Z" fill="white"/>
<path d="M32.2201 26.13C33.2201 26.37 34.1401 26.81 34.9401 27.39C36.5101 26.02 37.5101 24 37.5101 21.75C37.5101 17.61 34.1501 14.25 30.0101 14.25C27.5901 14.25 25.4501 15.4 24.0801 17.17C28.2701 18.34 31.5401 21.82 32.2301 26.13H32.2201Z" fill="white"/>
</g>
<defs>
<clipPath id="clip0_9_3453">
<rect width="40.75" height="33.75" fill="white" transform="translate(5 6)"/>
</clipPath>
</defs>
</svg>
