<svg width="50" height="45" viewBox="0 0 50 45" fill="none" xmlns="http://www.w3.org/2000/svg">
<g clip-path="url(#clip0_9_3545)">
<path d="M22 34.5C22 35.33 21.33 36 20.5 36C19.67 36 19 35.33 19 34.5C19 33.67 19.67 33 20.5 33C21.33 33 22 33.67 22 34.5Z" fill="white"/>
<path d="M26.5 36.5C26.5 37.33 25.83 38 25 38C24.17 38 23.5 37.33 23.5 36.5C23.5 35.67 24.17 35 25 35C25.83 35 26.5 35.67 26.5 36.5Z" fill="white"/>
<path d="M26.5 31.5C26.5 32.33 25.83 33 25 33C24.17 33 23.5 32.33 23.5 31.5C23.5 30.67 24.17 30 25 30C25.83 30 26.5 30.67 26.5 31.5Z" fill="white"/>
<path d="M31 34.5C31 35.33 30.33 36 29.5 36C28.67 36 28 35.33 28 34.5C28 33.67 28.67 33 29.5 33C30.33 33 31 33.67 31 34.5Z" fill="white"/>
<path d="M22 38.5C22 39.33 21.33 40 20.5 40C19.67 40 19 39.33 19 38.5C19 37.67 19.67 37 20.5 37C21.33 37 22 37.67 22 38.5Z" fill="white"/>
<path d="M31 38.5C31 39.33 30.33 40 29.5 40C28.67 40 28 39.33 28 38.5C28 37.67 28.67 37 29.5 37C30.33 37 31 37.67 31 38.5Z" fill="white"/>
<path fill-rule="evenodd" clip-rule="evenodd" d="M34.81 14.06C34.81 14.06 34.99 15 35.06 15C38.45 15.48 41 17.46 41 20.99C41 24.86 37.87 27.99 34 27.99H16C12.13 27.99 9 24.86 9 20.99C9 17.46 11.61 14.54 15 14.06C15.06 14.06 15.12 14.05 15.18 14.06C16.09 9.47 20.14 6 25 6C29.86 6 33.91 9.47 34.81 14.06Z" fill="white"/>
</g>
<defs>
<clipPath id="clip0_9_3545">
<rect width="32" height="34" fill="white" transform="translate(9 6)"/>
</clipPath>
</defs>
</svg>
