<svg width="50" height="45" viewBox="0 0 50 45" fill="none" xmlns="http://www.w3.org/2000/svg">
<g clip-path="url(#clip0_9_3566)">
<path fill-rule="evenodd" clip-rule="evenodd" d="M29.8201 27C28.1601 27 26.8201 28.34 26.8201 30V30.27C26.8201 30.82 27.2701 31.27 27.8201 31.27C28.3701 31.27 28.8201 30.82 28.8201 30.27V30C28.8201 29.45 29.2701 29 29.8201 29C30.3701 29 30.8201 29.45 30.8201 30V30.5C30.8201 31.33 30.1501 32 29.3201 32H28.3201C27.7701 32 27.3201 32.45 27.3201 33C27.3201 33.55 27.7701 34 28.3201 34H29.3201C31.2501 34 32.8201 32.43 32.8201 30.5V30C32.8201 28.34 31.4801 27 29.8201 27ZM30.3201 43C28.3901 43 26.8201 41.43 26.8201 39.5V39C26.8201 38.45 27.2701 38 27.8201 38C28.3701 38 28.8201 38.45 28.8201 39V39.5C28.8201 40.33 29.4901 41 30.3201 41C31.1501 41 31.8201 40.33 31.8201 39.5V39C31.8201 37.9 30.9201 37 29.8201 37H25.8201C25.2701 37 24.8201 36.55 24.8201 36C24.8201 35.45 25.2701 35 25.8201 35H29.8201C32.0301 35 33.8201 36.79 33.8201 39V39.5C33.8201 41.43 32.2501 43 30.3201 43Z" fill="white"/>
<path d="M26.8001 32.19C26.7601 32.07 26.6601 31.98 26.5301 31.97L22.8101 31.42L24.5201 27.49C24.5701 27.38 24.5601 27.26 24.5001 27.16C24.4401 27.06 24.3301 27 24.2201 27H19.0201C18.8401 27 18.6901 27.15 18.6901 27.33L18.4501 34.31C18.4501 34.48 18.5701 34.64 18.7301 34.66L21.3201 35.04L17.8601 41.48C17.7801 41.63 17.8201 41.82 17.9601 41.92C18.0201 41.96 18.0901 41.98 18.1501 41.98C18.2401 41.98 18.3301 41.94 18.3901 41.87L26.7301 32.51C26.8101 32.42 26.8401 32.28 26.8001 32.16V32.19Z" fill="white"/>
<path fill-rule="evenodd" clip-rule="evenodd" d="M34.81 11.06C34.81 11.06 34.99 12 35.06 12C38.45 12.48 41 14.46 41 17.99C41 21.86 37.87 24.99 34 24.99H16C12.13 24.99 9 21.86 9 17.99C9 14.46 11.61 11.54 15 11.06C15.06 11.06 15.12 11.05 15.18 11.06C16.09 6.47 20.14 3 25 3C29.86 3 33.91 6.47 34.81 11.06Z" fill="white"/>
</g>
<defs>
<clipPath id="clip0_9_3566">
<rect width="32" height="40" fill="white" transform="translate(9 3)"/>
</clipPath>
</defs>
</svg>
