<svg width="50" height="45" viewBox="0 0 50 45" fill="none" xmlns="http://www.w3.org/2000/svg">
<g clip-path="url(#clip0_9_3492)">
<path fill-rule="evenodd" clip-rule="evenodd" d="M39.4399 20.3901C39.4399 20.3901 39.6199 21.3301 39.6899 21.3301C43.0799 21.8101 45.6299 23.7901 45.6299 27.3201C45.6299 31.1901 42.4999 34.3201 38.6299 34.3201H20.6299C16.7599 34.3201 13.6299 31.1901 13.6299 27.3201C13.6299 23.7901 16.2399 20.8701 19.6299 20.3901C19.6899 20.3901 19.7499 20.3801 19.8099 20.3901C20.7099 15.7901 24.7599 12.3301 29.6199 12.3301C34.4799 12.3301 38.5299 15.8001 39.4299 20.3901H39.4399Z" fill="white"/>
<path fill-rule="evenodd" clip-rule="evenodd" d="M12.63 26.99C12.63 23.26 15.2 19.97 18.83 18.97C19.55 16.8 20.93 14.97 22.7 13.63C21.32 12.02 19.28 10.99 16.99 10.99C13.34 10.99 10.31 13.59 9.62999 17.04C9.58999 17.04 9.53999 17.04 9.48999 17.04C6.93999 17.4 4.98999 19.59 4.98999 22.24C4.98999 25.14 7.33999 27.49 10.24 27.49H12.65C12.64 27.32 12.62 27.15 12.62 26.98L12.63 26.99Z" fill="white"/>
</g>
<defs>
<clipPath id="clip0_9_3492">
<rect width="40.63" height="23.32" fill="white" transform="translate(5 11)"/>
</clipPath>
</defs>
</svg>
