<svg width="50" height="45" viewBox="0 0 50 45" fill="none" xmlns="http://www.w3.org/2000/svg">
<g clip-path="url(#clip0_9_3496)">
<path fill-rule="evenodd" clip-rule="evenodd" d="M27.2499 30.1539C27.7282 30.4301 27.8921 31.0417 27.6159 31.52L25.1159 35.85C24.8398 36.3282 24.2282 36.4921 23.7499 36.216C23.2716 35.9398 23.1078 35.3282 23.3839 34.8499L25.8839 30.5199C26.1601 30.0416 26.7716 29.8778 27.2499 30.1539ZM22.2499 31.1539C22.7282 31.4301 22.8921 32.0417 22.6159 32.52L20.1159 36.85C19.8398 37.3282 19.2282 37.4921 18.7499 37.216C18.2716 36.9398 18.1078 36.3282 18.3839 35.8499L20.8839 31.5199C21.1601 31.0416 21.7716 30.8778 22.2499 31.1539ZM31.2499 32.1539C31.7282 32.4301 31.8921 33.0417 31.6159 33.52L29.1159 37.85C28.8398 38.3282 28.2282 38.4921 27.7499 38.216C27.2716 37.9398 27.1078 37.3282 27.3839 36.8499L29.8839 32.5199C30.1601 32.0416 30.7716 31.8778 31.2499 32.1539Z" fill="white"/>
<path fill-rule="evenodd" clip-rule="evenodd" d="M34.81 14.06C34.81 14.06 34.99 15 35.06 15C38.45 15.48 41 17.46 41 20.99C41 24.86 37.87 27.99 34 27.99H16C12.13 27.99 9 24.86 9 20.99C9 17.46 11.61 14.54 15 14.06C15.06 14.06 15.12 14.05 15.18 14.06C16.09 9.47 20.14 6 25 6C29.86 6 33.91 9.47 34.81 14.06Z" fill="white"/>
</g>
<defs>
<clipPath id="clip0_9_3496">
<rect width="32" height="32.35" fill="white" transform="translate(9 6)"/>
</clipPath>
</defs>
</svg>
