<svg width="50" height="44" viewBox="0 0 50 44" fill="none" xmlns="http://www.w3.org/2000/svg">
<g clip-path="url(#clip0_9_3557)">
<path fill-rule="evenodd" clip-rule="evenodd" d="M27.37 34.18C26.89 33.9 26.76 33.23 27.09 32.67L29.42 28.63C29.74 28.07 30.39 27.8401 30.87 28.1201C31.35 28.4001 31.48 29.07 31.15 29.63L28.82 33.67C28.5 34.23 27.85 34.4601 27.37 34.18Z" fill="white"/>
<path fill-rule="evenodd" clip-rule="evenodd" d="M28.37 39.18C27.89 38.9 27.76 38.23 28.09 37.67L30.42 33.63C30.74 33.07 31.39 32.8401 31.87 33.1201C32.35 33.4001 32.48 34.07 32.15 34.63L29.82 38.67C29.5 39.23 28.85 39.4601 28.37 39.18Z" fill="white"/>
<path d="M21.77 30.4901C21.77 30.0101 22.16 29.6101 22.65 29.6101C23.14 29.6101 23.53 30.0001 23.53 30.4901V31.6001L24.49 31.0401C24.91 30.8001 25.44 30.9401 25.69 31.3601C25.93 31.7801 25.79 32.3101 25.37 32.5501L24.41 33.1101L25.37 33.6701C25.79 33.9101 25.93 34.4501 25.69 34.8601C25.45 35.2801 24.91 35.4201 24.49 35.1801L23.53 34.6301V35.7401C23.53 36.2201 23.14 36.6201 22.65 36.6201C22.16 36.6201 21.77 36.2301 21.77 35.7401V34.6301L20.81 35.1801C20.39 35.4201 19.86 35.2801 19.61 34.8601C19.37 34.4401 19.51 33.9101 19.93 33.6701L20.89 33.1101L19.93 32.5501C19.51 32.3101 19.37 31.7701 19.61 31.3601C19.85 30.9401 20.39 30.8001 20.81 31.0401L21.77 31.6001V30.4901Z" fill="white"/>
<path fill-rule="evenodd" clip-rule="evenodd" d="M34.81 12.06C34.81 12.06 34.99 13 35.06 13C38.45 13.48 41 15.46 41 18.99C41 22.86 37.87 25.99 34 25.99H16C12.13 25.99 9 22.86 9 18.99C9 15.46 11.61 12.54 15 12.06C15.06 12.06 15.12 12.05 15.18 12.06C16.09 7.47 20.14 4 25 4C29.86 4 33.91 7.47 34.81 12.06Z" fill="white"/>
</g>
<defs>
<clipPath id="clip0_9_3557">
<rect width="32" height="35.3" fill="white" transform="translate(9 4)"/>
</clipPath>
</defs>
</svg>
