<svg width="50" height="45" viewBox="0 0 50 45" fill="none" xmlns="http://www.w3.org/2000/svg">
<g clip-path="url(#clip0_9_3551)">
<path d="M19.81 27.88C19.81 27.4 20.2 27 20.69 27C21.18 27 21.57 27.39 21.57 27.88V28.99L22.53 28.44C22.95 28.2 23.48 28.34 23.73 28.76C23.97 29.18 23.83 29.71 23.41 29.95L22.45 30.51L23.41 31.07C23.83 31.31 23.97 31.85 23.73 32.26C23.49 32.68 22.95 32.82 22.53 32.58L21.57 32.03V33.14C21.57 33.62 21.18 34.02 20.69 34.02C20.2 34.02 19.81 33.63 19.81 33.14V32.03L18.85 32.58C18.43 32.82 17.9 32.68 17.65 32.26C17.41 31.84 17.55 31.31 17.97 31.07L18.93 30.51L17.97 29.95C17.55 29.71 17.41 29.17 17.65 28.76C17.89 28.34 18.43 28.2 18.85 28.44L19.81 28.99V27.88Z" fill="white"/>
<path d="M27.81 29.88C27.81 29.4 28.2 29 28.69 29C29.18 29 29.57 29.39 29.57 29.88V30.99L30.53 30.44C30.95 30.2 31.48 30.34 31.73 30.76C31.97 31.18 31.83 31.71 31.41 31.95L30.45 32.51L31.41 33.07C31.83 33.31 31.97 33.85 31.73 34.26C31.49 34.68 30.95 34.82 30.53 34.58L29.57 34.03V35.14C29.57 35.62 29.18 36.02 28.69 36.02C28.2 36.02 27.81 35.63 27.81 35.14V34.03L26.85 34.58C26.43 34.82 25.9 34.68 25.65 34.26C25.41 33.84 25.55 33.31 25.97 33.07L26.93 32.51L25.97 31.95C25.55 31.71 25.41 31.17 25.65 30.76C25.89 30.34 26.43 30.2 26.85 30.44L27.81 30.99V29.88Z" fill="white"/>
<path d="M21.81 35.38C21.81 34.9 22.2 34.5 22.69 34.5C23.18 34.5 23.57 34.89 23.57 35.38V36.49L24.53 35.94C24.95 35.7 25.48 35.84 25.73 36.26C25.97 36.68 25.83 37.21 25.41 37.45L24.45 38.01L25.41 38.57C25.83 38.81 25.97 39.35 25.73 39.76C25.49 40.18 24.95 40.32 24.53 40.08L23.57 39.53V40.64C23.57 41.12 23.18 41.52 22.69 41.52C22.2 41.52 21.81 41.13 21.81 40.64V39.53L20.85 40.08C20.43 40.32 19.9 40.18 19.65 39.76C19.41 39.34 19.55 38.81 19.97 38.57L20.93 38.01L19.97 37.45C19.55 37.21 19.41 36.67 19.65 36.26C19.89 35.84 20.43 35.7 20.85 35.94L21.81 36.49V35.38Z" fill="white"/>
<path fill-rule="evenodd" clip-rule="evenodd" d="M34.81 11.06C34.81 11.06 34.99 12 35.06 12C38.45 12.48 41 14.46 41 17.99C41 21.86 37.87 24.99 34 24.99H16C12.13 24.99 9 21.86 9 17.99C9 14.46 11.61 11.54 15 11.06C15.06 11.06 15.12 11.05 15.18 11.06C16.09 6.47 20.14 3 25 3C29.86 3 33.91 6.47 34.81 11.06Z" fill="white"/>
</g>
<defs>
<clipPath id="clip0_9_3551">
<rect width="32" height="38.5" fill="white" transform="translate(9 3)"/>
</clipPath>
</defs>
</svg>
