<svg width="50" height="45" viewBox="0 0 50 45" fill="none" xmlns="http://www.w3.org/2000/svg">
<g clip-path="url(#clip0_9_3561)">
<path fill-rule="evenodd" clip-rule="evenodd" d="M24.77 31.88C24.77 31.4 25.16 31 25.65 31C26.14 31 26.53 31.39 26.53 31.88V32.99L27.49 32.44C27.91 32.2 28.44 32.34 28.69 32.76C28.93 33.18 28.79 33.71 28.37 33.95L27.41 34.51L28.37 35.07C28.79 35.31 28.93 35.85 28.69 36.26C28.45 36.68 27.91 36.82 27.49 36.58L26.53 36.03V37.14C26.53 37.62 26.14 38.02 25.65 38.02C25.16 38.02 24.77 37.63 24.77 37.14V36.03L23.81 36.58C23.39 36.82 22.86 36.68 22.61 36.26C22.37 35.84 22.51 35.31 22.93 35.07L23.89 34.51L22.93 33.95C22.51 33.71 22.37 33.17 22.61 32.76C22.85 32.34 23.39 32.2 23.81 32.44L24.77 32.99V31.88Z" fill="white"/>
<path fill-rule="evenodd" clip-rule="evenodd" d="M34.81 15.06C34.81 15.06 34.99 16 35.06 16C38.45 16.48 41 18.46 41 21.99C41 25.86 37.87 28.99 34 28.99H16C12.13 28.99 9 25.86 9 21.99C9 18.46 11.61 15.54 15 15.06C15.06 15.06 15.12 15.05 15.18 15.06C16.09 10.47 20.14 7 25 7C29.86 7 33.91 10.47 34.81 15.06Z" fill="white"/>
</g>
<defs>
<clipPath id="clip0_9_3561">
<rect width="32" height="31" fill="white" transform="translate(9 7)"/>
</clipPath>
</defs>
</svg>
