<svg width="50" height="45" viewBox="0 0 50 45" fill="none" xmlns="http://www.w3.org/2000/svg">
<g clip-path="url(#clip0_9_3571)">
<path fill-rule="evenodd" clip-rule="evenodd" d="M28.2701 36.5599C27.7901 36.2799 27.6701 35.6099 27.9901 35.0499L30.3201 31.0099C30.6401 30.4499 31.2901 30.2199 31.7701 30.4999C32.2501 30.7799 32.3801 31.4499 32.0501 32.0099L29.7201 36.0499C29.4001 36.6099 28.7501 36.8399 28.2701 36.5599Z" fill="white"/>
<path d="M27.39 32.19C27.35 32.07 27.25 31.98 27.12 31.97L23.4 31.42L25.11 27.49C25.16 27.38 25.15 27.26 25.09 27.16C25.03 27.06 24.92 27 24.81 27H19.61C19.43 27 19.28 27.15 19.28 27.33L19.04 34.31C19.04 34.48 19.16 34.64 19.32 34.66L21.91 35.04L18.45 41.48C18.37 41.63 18.41 41.82 18.55 41.92C18.61 41.96 18.68 41.98 18.74 41.98C18.83 41.98 18.92 41.94 18.98 41.87L27.32 32.51C27.4 32.42 27.43 32.28 27.39 32.16V32.19Z" fill="white"/>
<path fill-rule="evenodd" clip-rule="evenodd" d="M34.81 11.06C34.81 11.06 34.99 12 35.06 12C38.45 12.48 41 14.46 41 17.99C41 21.86 37.87 24.99 34 24.99H16C12.13 24.99 9 21.86 9 17.99C9 14.46 11.61 11.54 15 11.06C15.06 11.06 15.12 11.05 15.18 11.06C16.09 6.47 20.14 3 25 3C29.86 3 33.91 6.47 34.81 11.06Z" fill="white"/>
</g>
<defs>
<clipPath id="clip0_9_3571">
<rect width="32" height="39" fill="white" transform="translate(9 3)"/>
</clipPath>
</defs>
</svg>
