<svg width="50" height="45" viewBox="0 0 50 45" fill="none" xmlns="http://www.w3.org/2000/svg">
<g clip-path="url(#clip0_9_3379)">
<path fill-rule="evenodd" clip-rule="evenodd" d="M17.5801 29C17.5801 28.4477 18.0278 28 18.5801 28H29.7801C30.6126 28 31.3937 28.4153 31.8596 29.1115C32.4269 29.9491 32.4269 31.0509 31.8596 31.8885C31.3937 32.5847 30.6126 33 29.7801 33H22.3901C22.2241 33 22.0665 33.0832 21.9721 33.2247L21.967 33.2323L21.967 33.2323C21.8578 33.393 21.8578 33.607 21.967 33.7677L21.9722 33.7753L21.9721 33.7753C22.0665 33.9168 22.2241 34 22.3901 34H27.7801C28.6126 34 29.3936 34.4153 29.8596 35.1115C30.4269 35.9492 30.4269 37.0509 29.8596 37.8885C29.3936 38.5847 28.6126 39 27.7801 39H24.3901C24.2241 39 24.0665 39.0832 23.9721 39.2247L23.967 39.2323L23.967 39.2323C23.8578 39.3929 23.8578 39.6071 23.967 39.7677L23.9722 39.7753L23.9721 39.7753C24.0665 39.9168 24.2241 40 24.3901 40H26.5901C27.1424 40 27.5901 40.4477 27.5901 41C27.5901 41.5523 27.1424 42 26.5901 42H24.3901C23.5576 42 22.7766 41.5847 22.3106 40.8885C21.7432 40.0509 21.7432 38.9491 22.3106 38.1115C22.7766 37.4153 23.5576 37 24.3901 37H27.7801C27.9461 37 28.1037 36.9168 28.198 36.7753L28.2031 36.7677L28.2032 36.7677C28.3124 36.6071 28.3124 36.3929 28.2032 36.2323L28.198 36.2247L28.198 36.2247C28.1037 36.0832 27.9461 36 27.7801 36H22.3901C21.5576 36 20.7765 35.5847 20.3106 34.8885C19.7432 34.0509 19.7432 32.9491 20.3106 32.1115C20.7765 31.4153 21.5576 31 22.3901 31H29.7801C29.9461 31 30.1037 30.9168 30.198 30.7753L30.2031 30.7677L30.2032 30.7677C30.3124 30.607 30.3124 30.393 30.2032 30.2323L30.198 30.2247L30.198 30.2247C30.1037 30.0832 29.9461 30 29.7801 30H18.5801C18.0278 30 17.5801 29.5523 17.5801 29Z" fill="white"/>
<path fill-rule="evenodd" clip-rule="evenodd" d="M34.81 11.06C34.81 11.06 34.99 12 35.06 12C38.45 12.48 41 14.46 41 17.99C41 21.86 37.87 24.99 34 24.99H16C12.13 24.99 9 21.86 9 17.99C9 14.46 11.61 11.54 15 11.06C15.06 11.06 15.12 11.05 15.18 11.06C16.09 6.47 20.14 3 25 3C29.86 3 33.91 6.47 34.81 11.06Z" fill="white"/>
</g>
<defs>
<clipPath id="clip0_9_3379">
<rect width="32" height="39" fill="white" transform="translate(9 3)"/>
</clipPath>
</defs>
</svg>
