<svg width="50" height="45" viewBox="0 0 50 45" fill="none" xmlns="http://www.w3.org/2000/svg">
<g clip-path="url(#clip0_9_3536)">
<path fill-rule="evenodd" clip-rule="evenodd" d="M22 27.8799C22 26.2199 23.34 24.8799 25 24.8799C26.66 24.8799 28 26.2199 28 27.8799V28.3799C28 30.3099 26.43 31.8799 24.5 31.8799H18C17.45 31.8799 17 31.4299 17 30.8799C17 30.3299 17.45 29.8799 18 29.8799H24.5C25.33 29.8799 26 29.2099 26 28.3799V27.8799C26 27.3299 25.55 26.8799 25 26.8799C24.45 26.8799 24 27.3299 24 27.8799V28.1499C24 28.6999 23.55 29.1499 23 29.1499C22.45 29.1499 22 28.6999 22 28.1499V27.8799ZM26 40.3799C26 42.3099 27.57 43.8799 29.5 43.8799C31.43 43.8799 33 42.3099 33 40.3799V39.8799C33 37.6699 31.21 35.8799 29 35.8799H19C18.45 35.8799 18 36.3299 18 36.8799C18 37.4299 18.45 37.8799 19 37.8799H29C30.11 37.8799 31 38.7699 31 39.8799V40.3799C31 41.2099 30.33 41.8799 29.5 41.8799C28.67 41.8799 28 41.2099 28 40.3799V39.8799C28 39.3299 27.55 38.8799 27 38.8799C26.45 38.8799 26 39.3299 26 39.8799V40.3799ZM20 32.8799C19.45 32.8799 19 33.3299 19 33.8799C19 34.4299 19.45 34.8799 20 34.8799H30C30.55 34.8799 31 34.4299 31 33.8799C31 33.3299 30.55 32.8799 30 32.8799H20Z" fill="white"/>
<path fill-rule="evenodd" clip-rule="evenodd" d="M34.81 10.06C34.81 10.06 34.99 11 35.06 11C38.45 11.48 41 13.46 41 16.99C41 20.86 37.87 23.99 34 23.99H16C12.13 23.99 9 20.86 9 16.99C9 13.46 11.61 10.54 15 10.06C15.06 10.06 15.12 10.05 15.18 10.06C16.09 5.47 20.14 2 25 2C29.86 2 33.91 5.47 34.81 10.06Z" fill="white"/>
</g>
<defs>
<clipPath id="clip0_9_3536">
<rect width="32" height="41.88" fill="white" transform="translate(9 2)"/>
</clipPath>
</defs>
</svg>
