<svg width="34" height="33" viewBox="0 0 34 33" fill="none" xmlns="http://www.w3.org/2000/svg">
<path d="M32.7884 29.5895C32.4799 28.0852 32.085 26.0073 31.6279 23.6005C29.3058 11.3801 28.0409 5.41258 27.1278 4.5502C26.5872 4.03979 25.1131 3.28795 23.7811 2.8331L21.6795 0.20625C21.6773 0.204059 21.6746 0.202963 21.6724 0.200771C21.6278 0.146309 21.5723 0.103963 21.5107 0.0704473C21.4963 0.0627773 21.482 0.0567188 21.4666 0.0500801C21.4078 0.02475 21.3457 0.00773438 21.2802 0.00444727C21.2736 0.00386719 21.2686 0 21.2621 0C21.2604 0 21.2588 0.0010957 21.2571 0.0010957C21.2549 0.0010957 21.2521 0 21.2499 0H13.55C13.5478 0 13.5456 0.0010957 13.5428 0.0010957C13.5412 0.0010957 13.5395 0 13.5379 0C13.5313 0 13.5263 0.00386719 13.5197 0.00438281C13.4537 0.00766992 13.3921 0.02475 13.3332 0.0500156C13.3178 0.0565898 13.3035 0.0626484 13.2892 0.0703828C13.2276 0.103963 13.172 0.146309 13.1275 0.200707C13.1253 0.202898 13.1225 0.203994 13.1203 0.206186L11.0188 2.83297C9.68725 3.28782 8.2132 4.03966 7.67206 4.55007C6.75908 5.41245 5.49406 11.38 3.17194 23.6004C2.7149 26.0072 2.32 28.0851 2.01146 29.5893C1.98065 29.7378 2.01256 29.8918 2.10002 30.0161C2.18748 30.1405 2.32167 30.2229 2.47185 30.2444L6.32183 30.7943C6.61664 30.8351 6.88831 30.6382 6.94116 30.3478C7.62758 26.5434 9.475 16.4734 9.77478 15.5737C9.96453 15.0038 10.3627 14.0133 10.7032 13.1867C11.0573 14.5809 11.2839 16.128 11.334 17.5564L10.7114 20.7799C9.99914 23.9723 9.14997 28.3971 9.14997 31.35C9.14997 31.5584 9.26766 31.7482 9.45412 31.8417C11.7702 33 15.1582 33 17.4 33C19.6418 33 23.0298 33 25.3458 31.8417C25.5323 31.7482 25.65 31.5584 25.65 31.35C25.65 28.3993 24.8008 23.9734 24.0918 20.7955L23.4659 17.5565C23.516 16.1282 23.7425 14.581 24.0968 13.1868C24.4378 14.0135 24.8354 15.004 25.0252 15.5738C25.3249 16.4736 27.1723 26.5435 27.8588 30.3479C27.9116 30.6383 28.1844 30.8352 28.4781 30.7945L32.3281 30.2445C32.4783 30.223 32.6124 30.1405 32.6998 30.0163C32.7872 29.892 32.8192 29.738 32.7884 29.5895ZM20.0367 1.10002L17.4 4.1085L14.7633 1.10002H20.0367ZM16.3175 4.85925C16.3027 4.86698 16.2884 4.87407 16.2735 4.88181C16.0695 4.98796 15.8649 5.09412 15.6592 5.19035C15.1422 5.43398 14.7489 5.53465 14.3914 5.50713C14.2721 5.4983 14.1566 5.47523 14.0416 5.43785C13.9954 5.42302 13.9366 5.38886 13.8712 5.34432C13.8635 5.33885 13.8568 5.33498 13.8486 5.3295C13.7848 5.28387 13.7133 5.22612 13.6369 5.16012C13.6237 5.1491 13.611 5.13814 13.5978 5.12654C13.5214 5.05886 13.4405 4.98352 13.3564 4.90211C13.3415 4.8878 13.3261 4.8724 13.3107 4.85699C13.2249 4.7723 13.1369 4.68316 13.0484 4.59022C13.038 4.57869 13.0275 4.56715 13.0165 4.55613C12.9241 4.45822 12.8317 4.35755 12.7415 4.25694C12.7393 4.25526 12.7376 4.25307 12.736 4.25146C12.6447 4.14917 12.5567 4.0474 12.4726 3.9484C12.4627 3.93686 12.4522 3.92474 12.4429 3.91321C12.3631 3.81917 12.2894 3.72894 12.2218 3.64424C12.2108 3.63052 12.1998 3.61672 12.1894 3.60357C12.1239 3.52049 12.0656 3.44405 12.0166 3.37586C12.0128 3.37038 12.0095 3.36594 12.0056 3.36046L13.5693 1.4063L16.5085 4.76077C16.4446 4.79325 16.3808 4.82625 16.3175 4.85925ZM17.4 29.15C17.0964 29.15 16.85 28.9036 16.85 28.6C16.85 28.2965 17.0964 28.05 17.4 28.05C17.7035 28.05 17.9499 28.2964 17.9499 28.6C17.9499 28.9036 17.7035 29.15 17.4 29.15ZM17.4 25.85C17.0964 25.85 16.85 25.6036 16.85 25.3C16.85 24.9965 17.0964 24.75 17.4 24.75C17.7035 24.75 17.9499 24.9964 17.9499 25.3C17.9499 25.6036 17.7035 25.85 17.4 25.85ZM17.4 22.55C17.0964 22.55 16.85 22.3036 16.85 22C16.85 21.6965 17.0964 21.45 17.4 21.45C17.7035 21.45 17.9499 21.6964 17.9499 22C17.9499 22.3036 17.7035 22.55 17.4 22.55ZM17.4 19.25C17.0964 19.25 16.85 19.0036 16.85 18.7C16.85 18.3965 17.0964 18.1501 17.4 18.1501C17.7035 18.1501 17.9499 18.3965 17.9499 18.7C17.9499 19.0036 17.7035 19.25 17.4 19.25ZM17.4 15.95C17.0964 15.95 16.85 15.7036 16.85 15.4C16.85 15.0965 17.0964 14.8501 17.4 14.8501C17.7035 14.8501 17.9499 15.0965 17.9499 15.4C17.9499 15.7036 17.7035 15.95 17.4 15.95ZM17.4 12.65C17.0964 12.65 16.85 12.4036 16.85 12.1C16.85 11.7965 17.0964 11.55 17.4 11.55C17.7035 11.55 17.9499 11.7964 17.9499 12.1C17.9499 12.4036 17.7035 12.65 17.4 12.65ZM17.4 9.35002C17.0964 9.35002 16.85 9.10362 16.85 8.80004C16.85 8.49647 17.0964 8.25 17.4 8.25C17.7035 8.25 17.9499 8.4964 17.9499 8.79998C17.9499 9.10355 17.7035 9.35002 17.4 9.35002ZM22.7839 3.37535C22.7344 3.44412 22.6756 3.52107 22.6096 3.60467C22.6002 3.61679 22.5903 3.62942 22.5805 3.64205C22.5112 3.72842 22.4363 3.81969 22.3555 3.9154C22.3478 3.92474 22.3396 3.93467 22.3313 3.94402C22.1603 4.14588 21.97 4.35871 21.7797 4.56057C21.7709 4.56992 21.7621 4.57927 21.7533 4.58861C21.6636 4.68265 21.5745 4.77288 21.4876 4.85867C21.4733 4.87298 21.459 4.88729 21.4447 4.90102C21.3605 4.98294 21.2797 5.05828 21.2026 5.12596C21.1894 5.13807 21.1762 5.14961 21.1625 5.16063C21.0871 5.22612 21.0162 5.28329 20.9529 5.3284C20.9436 5.33498 20.9353 5.33943 20.9265 5.34548C20.8644 5.38783 20.8077 5.42031 20.7632 5.43565C20.7621 5.43623 20.7599 5.43733 20.7588 5.43785C20.6631 5.46865 20.5663 5.48348 20.4684 5.4956C20.448 5.49779 20.4288 5.50604 20.4084 5.50713C20.3898 5.50881 20.3689 5.50436 20.3502 5.50494C20.1274 5.51319 19.892 5.4791 19.6198 5.38667C19.4719 5.33659 19.3135 5.27175 19.1413 5.19035C18.935 5.09412 18.731 4.98796 18.5269 4.88232C18.4483 4.84165 18.3702 4.8004 18.2915 4.76077L21.2307 1.4063L22.7944 3.36046C22.7905 3.36542 22.7878 3.37038 22.7839 3.37535Z" fill="white"/>
</svg>
