<svg width="34" height="33" viewBox="0 0 34 33" fill="none" xmlns="http://www.w3.org/2000/svg">
<path d="M31.2607 24.75V9.28125H16.8232V13.4062H19.4014C19.5381 13.4062 19.6693 13.4606 19.766 13.5573C19.8627 13.654 19.917 13.7851 19.917 13.9219C19.917 14.0586 19.8627 14.1898 19.766 14.2865C19.6693 14.3832 19.5381 14.4375 19.4014 14.4375H16.8232V14.9531C16.822 15.1829 16.769 15.4094 16.6682 15.6159L18.7347 17.6823C18.7839 17.7299 18.8232 17.7868 18.8502 17.8497C18.8772 17.9126 18.8915 17.9803 18.8921 18.0487C18.8927 18.1172 18.8796 18.1851 18.8537 18.2485C18.8278 18.3118 18.7895 18.3694 18.7411 18.4178C18.6926 18.4662 18.6351 18.5045 18.5717 18.5304C18.5083 18.5564 18.4404 18.5694 18.372 18.5688C18.3035 18.5682 18.2358 18.554 18.1729 18.527C18.11 18.5 18.0531 18.4607 18.0056 18.4114L15.9391 16.345C15.7326 16.4458 15.5061 16.4988 15.2764 16.5H14.7607V19.0781C14.7607 19.2149 14.7064 19.346 14.6097 19.4427C14.513 19.5394 14.3819 19.5938 14.2451 19.5938C14.1084 19.5938 13.9772 19.5394 13.8805 19.4427C13.7838 19.346 13.7295 19.2149 13.7295 19.0781V16.5H7.02637C5.79602 16.5014 4.61645 16.9907 3.74646 17.8607C2.87647 18.7307 2.38711 19.9103 2.38574 21.1406V24.75H31.2607Z" fill="white"/>
<path d="M31.2607 8.25V4.64062C31.2607 4.50387 31.2064 4.37272 31.1097 4.27602C31.013 4.17932 30.8819 4.125 30.7451 4.125H17.3389C17.2021 4.125 17.071 4.17932 16.9743 4.27602C16.8776 4.37272 16.8232 4.50387 16.8232 4.64062V8.25H31.2607Z" fill="white"/>
<path d="M2.38574 25.7812V28.3594C2.38574 28.4961 2.44007 28.6273 2.53677 28.724C2.63346 28.8207 2.76461 28.875 2.90137 28.875H5.47949V27.3281C5.47949 27.1914 5.53382 27.0602 5.63052 26.9635C5.72721 26.8668 5.85836 26.8125 5.99512 26.8125C6.13187 26.8125 6.26302 26.8668 6.35972 26.9635C6.45642 27.0602 6.51074 27.1914 6.51074 27.3281V28.875H8.57324V27.3281C8.57324 27.1914 8.62757 27.0602 8.72427 26.9635C8.82096 26.8668 8.95212 26.8125 9.08887 26.8125C9.22562 26.8125 9.35677 26.8668 9.45347 26.9635C9.55017 27.0602 9.60449 27.1914 9.60449 27.3281V28.875H11.667V27.3281C11.667 27.1914 11.7213 27.0602 11.818 26.9635C11.9147 26.8668 12.0459 26.8125 12.1826 26.8125C12.3194 26.8125 12.4505 26.8668 12.5472 26.9635C12.6439 27.0602 12.6982 27.1914 12.6982 27.3281V28.875H14.7607V27.3281C14.7607 27.1914 14.8151 27.0602 14.9118 26.9635C15.0085 26.8668 15.1396 26.8125 15.2764 26.8125C15.4131 26.8125 15.5443 26.8668 15.641 26.9635C15.7377 27.0602 15.792 27.1914 15.792 27.3281V28.875H19.415C19.4571 28.8752 19.4991 28.87 19.5399 28.8595L23.3838 27.8998L24.1895 28.7203C24.2375 28.7693 24.2947 28.8082 24.358 28.8348C24.4212 28.8614 24.489 28.875 24.5576 28.875H27.1357V27.3281C27.1357 27.1914 27.1901 27.0602 27.2868 26.9635C27.3835 26.8668 27.5146 26.8125 27.6514 26.8125C27.7881 26.8125 27.9193 26.8668 28.016 26.9635C28.1127 27.0602 28.167 27.1914 28.167 27.3281V28.875H30.7451C30.8819 28.875 31.013 28.8207 31.1097 28.724C31.2064 28.6273 31.2607 28.4961 31.2607 28.3594V25.7812H2.38574Z" fill="white"/>
</svg>
