<svg width="50" height="45" viewBox="0 0 50 45" fill="none" xmlns="http://www.w3.org/2000/svg">
<g clip-path="url(#clip0_9_3532)">
<path fill-rule="evenodd" clip-rule="evenodd" d="M26.1301 35.8439C26.6083 36.12 26.7722 36.7316 26.4961 37.2099L23.9961 41.5399C23.7199 42.0182 23.1083 42.1821 22.63 41.9059C22.1517 41.6298 21.9879 41.0182 22.264 40.5399L24.764 36.2099C25.0402 35.7316 25.6518 35.5677 26.1301 35.8439ZM21.1301 36.8439C21.6083 37.12 21.7722 37.7316 21.4961 38.2099L18.9961 42.5399C18.7199 43.0182 18.1083 43.1821 17.63 42.9059C17.1517 42.6298 16.9879 42.0182 17.264 41.5399L19.764 37.2099C20.0402 36.7316 20.6518 36.5677 21.1301 36.8439ZM30.1301 37.8439C30.6083 38.12 30.7722 38.7316 30.4961 39.2099L27.9961 43.5399C27.7199 44.0182 27.1083 44.1821 26.63 43.9059C26.1517 43.6298 25.9879 43.0182 26.264 42.5399L28.764 38.2099C29.0402 37.7316 29.6518 37.5677 30.1301 37.8439Z" fill="white"/>
<path d="M19.3799 14.25H22.3799C23.2099 14.25 23.8799 14.92 23.8799 15.75C23.8799 16.58 23.2099 17.25 22.3799 17.25H19.3799C18.5499 17.25 17.8799 16.58 17.8799 15.75C17.8799 14.92 18.5499 14.25 19.3799 14.25Z" fill="white"/>
<mask id="mask0_9_3532" style="mask-type:luminance" maskUnits="userSpaceOnUse" x="17" y="14" width="7" height="4">
<path d="M19.3799 14.25H22.3799C23.2099 14.25 23.8799 14.92 23.8799 15.75C23.8799 16.58 23.2099 17.25 22.3799 17.25H19.3799C18.5499 17.25 17.8799 16.58 17.8799 15.75C17.8799 14.92 18.5499 14.25 19.3799 14.25Z" fill="white"/>
</mask>
<g mask="url(#mask0_9_3532)">
<path fill-rule="evenodd" clip-rule="evenodd" d="M18.6299 16C18.6299 15.4477 19.0776 15 19.6299 15H22.1299C22.6822 15 23.1299 15.4477 23.1299 16C23.1299 16.5523 22.6822 17 22.1299 17H19.6299C19.0776 17 18.6299 16.5523 18.6299 16Z" fill="white"/>
</g>
<path d="M19.3799 14.25H22.3799C23.2099 14.25 23.8799 14.92 23.8799 15.75C23.8799 16.58 23.2099 17.25 22.3799 17.25H19.3799C18.5499 17.25 17.8799 16.58 17.8799 15.75C17.8799 14.92 18.5499 14.25 19.3799 14.25Z" fill="white"/>
<mask id="mask1_9_3532" style="mask-type:luminance" maskUnits="userSpaceOnUse" x="17" y="14" width="7" height="4">
<path d="M19.3799 14.25H22.3799C23.2099 14.25 23.8799 14.92 23.8799 15.75C23.8799 16.58 23.2099 17.25 22.3799 17.25H19.3799C18.5499 17.25 17.8799 16.58 17.8799 15.75C17.8799 14.92 18.5499 14.25 19.3799 14.25Z" fill="white"/>
</mask>
<g mask="url(#mask1_9_3532)">
<path fill-rule="evenodd" clip-rule="evenodd" d="M18.6299 16C18.6299 15.4477 19.0776 15 19.6299 15H22.1299C22.6822 15 23.1299 15.4477 23.1299 16C23.1299 16.5523 22.6822 17 22.1299 17H19.6299C19.0776 17 18.6299 16.5523 18.6299 16Z" fill="white"/>
</g>
<path fill-rule="evenodd" clip-rule="evenodd" d="M7.62999 26.4199C7.62999 22.6899 10.2 19.3999 13.83 18.3999C14.55 16.2299 15.93 14.3999 17.7 13.0599C16.32 11.4499 14.28 10.4199 11.99 10.4199C8.33999 10.4199 5.30999 13.0199 4.62999 16.4699C4.58999 16.4699 4.53999 16.4699 4.48999 16.4699C1.93999 16.8299 -0.0100098 19.0199 -0.0100098 21.6699C-0.0100098 24.5699 2.33999 26.9199 5.23999 26.9199H7.64999C7.63999 26.7499 7.61999 26.5799 7.61999 26.4099L7.62999 26.4199Z" fill="white"/>
<mask id="mask2_9_3532" style="mask-type:luminance" maskUnits="userSpaceOnUse" x="43" y="14" width="7" height="4">
<path d="M44.8799 14.25H47.8799C48.7099 14.25 49.3799 14.92 49.3799 15.75C49.3799 16.58 48.7099 17.25 47.8799 17.25H44.8799C44.0499 17.25 43.3799 16.58 43.3799 15.75C43.3799 14.92 44.0499 14.25 44.8799 14.25Z" fill="white"/>
</mask>
<g mask="url(#mask2_9_3532)">
<path fill-rule="evenodd" clip-rule="evenodd" d="M44.1299 16C44.1299 15.4477 44.5776 15 45.1299 15H47.6299C48.1822 15 48.6299 15.4477 48.6299 16C48.6299 16.5523 48.1822 17 47.6299 17H45.1299C44.5776 17 44.1299 16.5523 44.1299 16Z" fill="white"/>
</g>
<mask id="mask3_9_3532" style="mask-type:luminance" maskUnits="userSpaceOnUse" x="17" y="14" width="7" height="4">
<path d="M19.3799 14.25H22.3799C23.2099 14.25 23.8799 14.92 23.8799 15.75C23.8799 16.58 23.2099 17.25 22.3799 17.25H19.3799C18.5499 17.25 17.8799 16.58 17.8799 15.75C17.8799 14.92 18.5499 14.25 19.3799 14.25Z" fill="white"/>
</mask>
<g mask="url(#mask3_9_3532)">
<path fill-rule="evenodd" clip-rule="evenodd" d="M18.6299 16C18.6299 15.4477 19.0776 15 19.6299 15H22.1299C22.6822 15 23.1299 15.4477 23.1299 16C23.1299 16.5523 22.6822 17 22.1299 17H19.6299C19.0776 17 18.6299 16.5523 18.6299 16Z" fill="white"/>
</g>
<mask id="mask4_9_3532" style="mask-type:luminance" maskUnits="userSpaceOnUse" x="43" y="14" width="7" height="4">
<path d="M44.8799 14.25H47.8799C48.7099 14.25 49.3799 14.92 49.3799 15.75C49.3799 16.58 48.7099 17.25 47.8799 17.25H44.8799C44.0499 17.25 43.3799 16.58 43.3799 15.75C43.3799 14.92 44.0499 14.25 44.8799 14.25Z" fill="white"/>
</mask>
<g mask="url(#mask4_9_3532)">
<path fill-rule="evenodd" clip-rule="evenodd" d="M44.1299 16C44.1299 15.4477 44.5776 15 45.1299 15H47.6299C48.1822 15 48.6299 15.4477 48.6299 16C48.6299 16.5523 48.1822 17 47.6299 17H45.1299C44.5776 17 44.1299 16.5523 44.1299 16Z" fill="white"/>
</g>
<mask id="mask5_9_3532" style="mask-type:luminance" maskUnits="userSpaceOnUse" x="17" y="14" width="7" height="4">
<path d="M19.3799 14.25H22.3799C23.2099 14.25 23.8799 14.92 23.8799 15.75C23.8799 16.58 23.2099 17.25 22.3799 17.25H19.3799C18.5499 17.25 17.8799 16.58 17.8799 15.75C17.8799 14.92 18.5499 14.25 19.3799 14.25Z" fill="white"/>
</mask>
<g mask="url(#mask5_9_3532)">
<path fill-rule="evenodd" clip-rule="evenodd" d="M18.6299 16C18.6299 15.4477 19.0776 15 19.6299 15H22.1299C22.6822 15 23.1299 15.4477 23.1299 16C23.1299 16.5523 22.6822 17 22.1299 17H19.6299C19.0776 17 18.6299 16.5523 18.6299 16Z" fill="white"/>
</g>
<mask id="mask6_9_3532" style="mask-type:luminance" maskUnits="userSpaceOnUse" x="41" y="19" width="7" height="6">
<path d="M44.1198 20.08L46.7198 21.58C47.4398 21.99 47.6798 22.91 47.2698 23.63C46.8598 24.35 45.9398 24.59 45.2198 24.18L42.6198 22.68C41.8998 22.27 41.6598 21.35 42.0698 20.63C42.4798 19.91 43.3998 19.67 44.1198 20.08Z" fill="white"/>
</mask>
<g mask="url(#mask6_9_3532)">
<path fill-rule="evenodd" clip-rule="evenodd" d="M42.5934 21.221C42.869 20.7424 43.4805 20.5779 43.959 20.8536L46.129 22.1036C46.6076 22.3793 46.7721 22.9907 46.4964 23.4693C46.2207 23.9478 45.6093 24.1123 45.1307 23.8367L42.9607 22.5867C42.4822 22.311 42.3177 21.6996 42.5934 21.221Z" fill="white"/>
</g>
<mask id="mask7_9_3532" style="mask-type:luminance" maskUnits="userSpaceOnUse" x="25" y="1" width="5" height="7">
<path d="M27.7999 2.66006L29.2999 5.26006C29.7099 5.98006 29.4699 6.89006 28.7499 7.31006C28.0299 7.72006 27.1199 7.48006 26.6999 6.76006L25.1999 4.16006C24.7899 3.44006 25.0299 2.53005 25.7499 2.11005C26.4699 1.70005 27.3799 1.94006 27.7999 2.66006Z" fill="white"/>
</mask>
<g mask="url(#mask7_9_3532)">
<path fill-rule="evenodd" clip-rule="evenodd" d="M25.9107 2.88365C26.3893 2.60798 27.0007 2.77246 27.2764 3.25102L28.5264 5.42102C28.802 5.89959 28.6375 6.51102 28.159 6.78669C27.6804 7.06236 27.069 6.89788 26.7933 6.41931L25.5433 4.24931C25.2676 3.77075 25.4321 3.15932 25.9107 2.88365Z" fill="white"/>
</g>
<mask id="mask8_9_3532" style="mask-type:luminance" maskUnits="userSpaceOnUse" x="32" y="25" width="4" height="7">
<path d="M35.1299 27V30C35.1299 30.83 34.4599 31.5 33.6299 31.5C32.7999 31.5 32.1299 30.83 32.1299 30V27C32.1299 26.17 32.7999 25.5 33.6299 25.5C34.4599 25.5 35.1299 26.17 35.1299 27Z" fill="white"/>
</mask>
<g mask="url(#mask8_9_3532)">
<path fill-rule="evenodd" clip-rule="evenodd" d="M33.3799 26.25C33.9322 26.25 34.3799 26.6977 34.3799 27.25V29.75C34.3799 30.3023 33.9322 30.75 33.3799 30.75C32.8276 30.75 32.3799 30.3023 32.3799 29.75V27.25C32.3799 26.6977 32.8276 26.25 33.3799 26.25Z" fill="white"/>
</g>
<mask id="mask9_9_3532" style="mask-type:luminance" maskUnits="userSpaceOnUse" x="32" y="0" width="4" height="6">
<path d="M35.1299 1.5V4.5C35.1299 5.33 34.4599 6 33.6299 6C32.7999 6 32.1299 5.33 32.1299 4.5V1.5C32.1299 0.67 32.7999 0 33.6299 0C34.4599 0 35.1299 0.67 35.1299 1.5Z" fill="white"/>
</mask>
<g mask="url(#mask9_9_3532)">
<path fill-rule="evenodd" clip-rule="evenodd" d="M33.3799 0.75C33.9322 0.75 34.3799 1.19772 34.3799 1.75V4.25C34.3799 4.80228 33.9322 5.25 33.3799 5.25C32.8276 5.25 32.3799 4.80228 32.3799 4.25V1.75C32.3799 1.19772 32.8276 0.75 33.3799 0.75Z" fill="white"/>
</g>
<mask id="mask10_9_3532" style="mask-type:luminance" maskUnits="userSpaceOnUse" x="25" y="23" width="5" height="7">
<path d="M29.2999 26.2399L27.7999 28.8399C27.3899 29.5599 26.4699 29.7999 25.7499 29.3899C25.0299 28.9799 24.7899 28.0599 25.1999 27.3399L26.6999 24.7399C27.1099 24.0199 28.0299 23.7799 28.7499 24.1899C29.4699 24.5999 29.7099 25.5199 29.2999 26.2399Z" fill="white"/>
</mask>
<g mask="url(#mask10_9_3532)">
<path fill-rule="evenodd" clip-rule="evenodd" d="M28.159 24.7135C28.6375 24.9892 28.802 25.6006 28.5264 26.0791L27.2764 28.2491C27.0007 28.7277 26.3893 28.8922 25.9107 28.6165C25.4321 28.3408 25.2676 27.7294 25.5433 27.2509L26.7933 25.0809C27.069 24.6023 27.6804 24.4378 28.159 24.7135Z" fill="white"/>
</g>
<mask id="mask11_9_3532" style="mask-type:luminance" maskUnits="userSpaceOnUse" x="37" y="1" width="6" height="7">
<path d="M42.0499 4.16006L40.5499 6.76006C40.1399 7.48006 39.2199 7.72006 38.4999 7.31006C37.7799 6.90006 37.5399 5.98006 37.9499 5.26006L39.4499 2.66006C39.8599 1.94006 40.7799 1.70005 41.4999 2.11005C42.2199 2.52005 42.4599 3.44006 42.0499 4.16006Z" fill="white"/>
</mask>
<g mask="url(#mask11_9_3532)">
<path fill-rule="evenodd" clip-rule="evenodd" d="M40.909 2.63365C41.3875 2.90932 41.552 3.52075 41.2764 3.99931L40.0264 6.16931C39.7507 6.64788 39.1393 6.81236 38.6607 6.53669C38.1821 6.26102 38.0176 5.64959 38.2933 5.17102L39.5433 3.00102C39.819 2.52246 40.4304 2.35798 40.909 2.63365Z" fill="white"/>
</g>
<mask id="mask12_9_3532" style="mask-type:luminance" maskUnits="userSpaceOnUse" x="19" y="19" width="7" height="6">
<path d="M24.6399 22.67L22.0399 24.17C21.3199 24.58 20.4099 24.34 19.9899 23.62C19.5799 22.9 19.8199 21.99 20.5399 21.57L23.1399 20.07C23.8599 19.66 24.7699 19.9 25.1899 20.62C25.5999 21.34 25.3599 22.25 24.6399 22.67Z" fill="white"/>
</mask>
<g mask="url(#mask12_9_3532)">
<path fill-rule="evenodd" clip-rule="evenodd" d="M24.4166 20.7808C24.6922 21.2594 24.5278 21.8708 24.0492 22.1465L21.8792 23.3965C21.4006 23.6721 20.7892 23.5077 20.5135 23.0291C20.2379 22.5505 20.4023 21.9391 20.8809 21.6634L23.0509 20.4134C23.5295 20.1378 24.1409 20.3022 24.4166 20.7808Z" fill="white"/>
</g>
<mask id="mask13_9_3532" style="mask-type:luminance" maskUnits="userSpaceOnUse" x="41" y="7" width="7" height="5">
<path d="M46.7198 9.92002L44.1198 11.42C43.3998 11.83 42.4898 11.59 42.0698 10.87C41.6598 10.15 41.8998 9.24002 42.6198 8.82002L45.2198 7.32002C45.9398 6.91002 46.8498 7.15002 47.2698 7.87002C47.6798 8.59002 47.4398 9.50002 46.7198 9.92002Z" fill="white"/>
</mask>
<g mask="url(#mask13_9_3532)">
<path fill-rule="evenodd" clip-rule="evenodd" d="M46.4964 8.03081C46.7721 8.50937 46.6076 9.1208 46.129 9.39647L43.959 10.6465C43.4805 10.9221 42.869 10.7577 42.5934 10.2791C42.3177 9.80053 42.4822 9.18911 42.9607 8.91344L45.1307 7.66344C45.6093 7.38776 46.2207 7.55224 46.4964 8.03081Z" fill="white"/>
</g>
<path fill-rule="evenodd" clip-rule="evenodd" d="M34.4399 19.81C34.4399 19.81 34.6199 20.75 34.6899 20.75C38.0799 21.23 40.6299 23.21 40.6299 26.74C40.6299 30.61 37.4999 33.74 33.6299 33.74H15.6299C11.7599 33.74 8.62988 30.61 8.62988 26.74C8.62988 23.21 11.2399 20.29 14.6299 19.81C14.6899 19.81 14.7499 19.8 14.8099 19.81C15.7099 15.21 19.7599 11.75 24.6199 11.75C29.4799 11.75 33.5299 15.22 34.4299 19.81H34.4399Z" fill="white"/>
<path d="M35.85 20.13C36.85 20.37 37.77 20.81 38.57 21.39C40.14 20.02 41.14 18 41.14 15.75C41.14 11.61 37.78 8.25 33.64 8.25C31.22 8.25 29.08 9.4 27.71 11.17C31.9 12.34 35.17 15.82 35.86 20.13H35.85Z" fill="white"/>
</g>
<defs>
<clipPath id="clip0_9_3532">
<rect width="49.38" height="44.04" fill="white"/>
</clipPath>
</defs>
</svg>
