<svg width="34" height="33" viewBox="0 0 34 33" fill="none" xmlns="http://www.w3.org/2000/svg">
<g clip-path="url(#clip0_16_744)">
<path d="M12.4795 7.91162H8.94234L0.704666 19.3303C0.478201 19.6441 0.445657 20.056 0.619826 20.4008C0.696137 20.5518 2.49528 23.9773 9.08419 25.859L12.4795 7.91162Z" fill="white"/>
<path d="M25.1647 6.45419V4.4763C25.1647 3.90141 24.6939 3.4353 24.1133 3.4353H10.2345C9.65388 3.4353 9.18311 3.90141 9.18311 4.4763V6.45419H25.1647Z" fill="white"/>
<path d="M20.3706 7.91162H13.977L10.2429 27.6497C11.3088 28.4494 13.4608 29.5646 17.1739 29.5646C20.887 29.5646 23.0389 28.4494 24.1048 27.6497L20.3706 7.91162Z" fill="white"/>
<path d="M33.6431 19.3303L25.4054 7.91162H21.8684L25.2637 25.8588C31.8526 23.9771 33.6516 20.5517 33.7281 20.4007C33.9021 20.056 33.8693 19.6441 33.6431 19.3303Z" fill="white"/>
</g>
<defs>
<clipPath id="clip0_16_744">
<rect width="33.33" height="33" fill="white" transform="translate(0.508789)"/>
</clipPath>
</defs>
</svg>
