<svg width="34" height="33" viewBox="0 0 34 33" fill="none" xmlns="http://www.w3.org/2000/svg">
<g clip-path="url(#clip0_16_740)">
<path d="M25.9685 14.7197C26.8924 12.8389 26.7404 10.6068 25.5727 8.86686C24.3745 7.08134 23.5584 4.04589 23.4696 0.557673C23.4616 0.247548 23.2081 0 22.8979 0H21.6204C21.3109 0 21.058 0.245822 21.0488 0.555142C20.9063 5.33988 18.9344 9.13304 16.5222 9.13304C14.1101 9.13304 12.1382 5.33988 11.9957 0.555142C11.9863 0.246052 11.7331 0 11.4239 0H10.1464C9.83591 0 9.5825 0.247318 9.57467 0.557673C9.48587 4.04589 8.66972 7.08134 7.47155 8.86686C6.30548 10.6045 6.15306 12.8413 7.07573 14.7197L7.07723 14.7226C8.3474 17.3084 8.71159 20.246 8.11113 23.0637L6.28086 31.6524C6.21069 31.9816 6.29294 32.3249 6.50471 32.5865C6.71649 32.848 7.03501 33.0001 7.37159 33.0001H25.6725C26.0091 33.0001 26.3276 32.8482 26.5394 32.5865C26.7512 32.3249 26.8334 31.9816 26.7633 31.6524L24.933 23.0638C24.3325 20.2461 24.6967 17.3084 25.967 14.7226L25.9685 14.7197Z" fill="white"/>
</g>
<defs>
<clipPath id="clip0_16_740">
<rect width="33" height="33" fill="white" transform="translate(0.0222168)"/>
</clipPath>
</defs>
</svg>
